<?xml version="1.0" encoding="UTF-8" standalone="no"?>
<!DOCTYPE svg PUBLIC "-//W3C//DTD SVG 1.1//EN"
 "http://www.w3.org/Graphics/SVG/1.1/DTD/svg11.dtd">
<!-- Generated by graphviz version 2.43.0 (0)
 -->
<!-- Title: %3 Pages: 1 -->
<svg width="832pt" height="437pt"
 viewBox="0.00 0.00 832.19 437.00" xmlns="http://www.w3.org/2000/svg" xmlns:xlink="http://www.w3.org/1999/xlink">
<g id="graph0" class="graph" transform="scale(1 1) rotate(0) translate(4 433)">
<title>%3</title>
<polygon fill="white" stroke="transparent" points="-4,4 -4,-433 828.19,-433 828.19,4 -4,4"/>
<g id="clust1" class="cluster">
<title>cluster_inputs</title>
</g>
<g id="clust2" class="cluster">
<title>cluster_finals</title>
</g>
<!-- Var_z2 -->
<g id="node1" class="node">
<title>Var_z2</title>
<polygon fill="#e3f2fd" stroke="#1565c0" stroke-width="1.5" points="102.06,-194 34.43,-194 17.03,-114 84.66,-114 102.06,-194"/>
<text text-anchor="middle" x="59.54" y="-151.2" font-family="Helvetica,sans-Serif" font-size="11.00">z2</text>
</g>
<!-- Step_140413256392720 -->
<g id="node11" class="node">
<title>Step_140413256392720</title>
<polygon fill="#fff3e0" stroke="#ef6c00" stroke-width="1.5" points="550.59,-291 390.59,-291 390.59,-287 386.59,-287 386.59,-283 390.59,-283 390.59,-243 386.59,-243 386.59,-239 390.59,-239 390.59,-235 550.59,-235 550.59,-291"/>
<polyline fill="none" stroke="#ef6c00" stroke-width="1.5" points="390.59,-287 394.59,-287 394.59,-283 390.59,-283 "/>
<polyline fill="none" stroke="#ef6c00" stroke-width="1.5" points="390.59,-243 394.59,-243 394.59,-239 390.59,-239 "/>
<text text-anchor="start" x="412.59" y="-261.2" font-family="Helvetica,sans-Serif" font-weight="bold" font-size="11.00">compute_objective</text>
</g>
<!-- Var_z2&#45;&gt;Step_140413256392720 -->
<g id="edge6" class="edge">
<title>Var_z2&#45;&gt;Step_140413256392720</title>
<path fill="none" stroke="#616161" d="M99.98,-184.33C111.6,-184.33 121.19,-184.33 121.19,-184.33 121.19,-184.33 121.19,-263 121.19,-263 121.19,-263 380.43,-263 380.43,-263"/>
<polygon fill="#616161" stroke="#616161" points="380.43,-266.5 390.43,-263 380.43,-259.5 380.43,-266.5"/>
</g>
<!-- Step_140413256534992 -->
<g id="node12" class="node">
<title>Step_140413256534992</title>
<polygon fill="#fff3e0" stroke="#ef6c00" stroke-width="1.5" points="255.09,-221 139.09,-221 139.09,-217 135.09,-217 135.09,-213 139.09,-213 139.09,-173 135.09,-173 135.09,-169 139.09,-169 139.09,-165 255.09,-165 255.09,-221"/>
<polyline fill="none" stroke="#ef6c00" stroke-width="1.5" points="139.09,-217 143.09,-217 143.09,-213 139.09,-213 "/>
<polyline fill="none" stroke="#ef6c00" stroke-width="1.5" points="139.09,-173 143.09,-173 143.09,-169 139.09,-169 "/>
<text text-anchor="start" x="161.09" y="-191.2" font-family="Helvetica,sans-Serif" font-weight="bold" font-size="11.00">discipline_1</text>
</g>
<!-- Var_z2&#45;&gt;Step_140413256534992 -->
<g id="edge11" class="edge">
<title>Var_z2&#45;&gt;Step_140413256534992</title>
<path fill="none" stroke="#616161" d="M97.86,-174.67C97.86,-174.67 128.91,-174.67 128.91,-174.67"/>
<polygon fill="#616161" stroke="#616161" points="128.91,-178.17 138.91,-174.67 128.91,-171.17 128.91,-178.17"/>
</g>
<!-- Step_140413256566480 -->
<g id="node13" class="node">
<title>Step_140413256566480</title>
<polygon fill="#fff3e0" stroke="#ef6c00" stroke-width="1.5" points="528.59,-134 412.59,-134 412.59,-130 408.59,-130 408.59,-126 412.59,-126 412.59,-86 408.59,-86 408.59,-82 412.59,-82 412.59,-78 528.59,-78 528.59,-134"/>
<polyline fill="none" stroke="#ef6c00" stroke-width="1.5" points="412.59,-130 416.59,-130 416.59,-126 412.59,-126 "/>
<polyline fill="none" stroke="#ef6c00" stroke-width="1.5" points="412.59,-86 416.59,-86 416.59,-82 412.59,-82 "/>
<text text-anchor="start" x="434.59" y="-104.2" font-family="Helvetica,sans-Serif" font-weight="bold" font-size="11.00">discipline_2</text>
</g>
<!-- Var_z2&#45;&gt;Step_140413256566480 -->
<g id="edge16" class="edge">
<title>Var_z2&#45;&gt;Step_140413256566480</title>
<path fill="none" stroke="#616161" d="M85.88,-119C85.88,-119 402.25,-119 402.25,-119"/>
<polygon fill="#616161" stroke="#616161" points="402.25,-122.5 412.25,-119 402.25,-115.5 402.25,-122.5"/>
</g>
<!-- Var_z1 -->
<g id="node2" class="node">
<title>Var_z1</title>
<polygon fill="#e3f2fd" stroke="#1565c0" stroke-width="1.5" points="102.06,-96 34.43,-96 17.03,-16 84.66,-16 102.06,-96"/>
<text text-anchor="middle" x="59.54" y="-53.2" font-family="Helvetica,sans-Serif" font-size="11.00">z1</text>
</g>
<!-- Var_z1&#45;&gt;Step_140413256534992 -->
<g id="edge10" class="edge">
<title>Var_z1&#45;&gt;Step_140413256534992</title>
<path fill="none" stroke="#616161" d="M100.84,-90C141.39,-90 197.19,-90 197.19,-90 197.19,-90 197.19,-154.85 197.19,-154.85"/>
<polygon fill="#616161" stroke="#616161" points="193.69,-154.85 197.19,-164.85 200.69,-154.85 193.69,-154.85"/>
</g>
<!-- Var_z1&#45;&gt;Step_140413256566480 -->
<g id="edge15" class="edge">
<title>Var_z1&#45;&gt;Step_140413256566480</title>
<path fill="none" stroke="#616161" d="M99.7,-84C99.7,-84 402.57,-84 402.57,-84"/>
<polygon fill="#616161" stroke="#616161" points="402.57,-87.5 412.57,-84 402.57,-80.5 402.57,-87.5"/>
</g>
<!-- Var_x1 -->
<g id="node3" class="node">
<title>Var_x1</title>
<polygon fill="#e3f2fd" stroke="#1565c0" stroke-width="1.5" points="103.13,-292 33.79,-292 15.96,-212 85.29,-212 103.13,-292"/>
<text text-anchor="middle" x="59.54" y="-249.2" font-family="Helvetica,sans-Serif" font-size="11.00">x1</text>
</g>
<!-- Var_x1&#45;&gt;Step_140413256392720 -->
<g id="edge5" class="edge">
<title>Var_x1&#45;&gt;Step_140413256392720</title>
<path fill="none" stroke="#616161" d="M100.08,-277C100.08,-277 380.34,-277 380.34,-277"/>
<polygon fill="#616161" stroke="#616161" points="380.34,-280.5 390.34,-277 380.34,-273.5 380.34,-280.5"/>
</g>
<!-- Var_x1&#45;&gt;Step_140413256534992 -->
<g id="edge12" class="edge">
<title>Var_x1&#45;&gt;Step_140413256534992</title>
<path fill="none" stroke="#616161" d="M86.39,-216.5C86.39,-216.5 129.01,-216.5 129.01,-216.5"/>
<polygon fill="#616161" stroke="#616161" points="129.01,-220 139.01,-216.5 129.01,-213 129.01,-220"/>
</g>
<!-- Var_constraint_1 -->
<g id="node4" class="node">
<title>Var_constraint_1</title>
<polygon fill="#e8f5e9" stroke="#2e7d32" stroke-width="2" points="801.72,-197 643.31,-197 602.56,-117 760.97,-117 801.72,-197"/>
<polygon fill="none" stroke="#2e7d32" stroke-width="2" points="808.25,-201 640.86,-201 596.03,-113 763.42,-113 808.25,-201"/>
<text text-anchor="middle" x="702.14" y="-154.2" font-family="Helvetica,sans-Serif" font-size="11.00">constraint_1</text>
</g>
<!-- Var_constraint_2 -->
<g id="node5" class="node">
<title>Var_constraint_2</title>
<polygon fill="#e8f5e9" stroke="#2e7d32" stroke-width="2" points="801.72,-409 643.31,-409 602.56,-329 760.97,-329 801.72,-409"/>
<polygon fill="none" stroke="#2e7d32" stroke-width="2" points="808.25,-413 640.86,-413 596.03,-325 763.42,-325 808.25,-413"/>
<text text-anchor="middle" x="702.14" y="-366.2" font-family="Helvetica,sans-Serif" font-size="11.00">constraint_2</text>
</g>
<!-- Var_objective -->
<g id="node6" class="node">
<title>Var_objective</title>
<polygon fill="#e8f5e9" stroke="#2e7d32" stroke-width="2" points="783.97,-303 653.8,-303 620.32,-223 750.48,-223 783.97,-303"/>
<polygon fill="none" stroke="#2e7d32" stroke-width="2" points="789.97,-307 651.14,-307 614.31,-219 753.14,-219 789.97,-307"/>
<text text-anchor="middle" x="702.14" y="-260.2" font-family="Helvetica,sans-Serif" font-size="11.00">objective</text>
</g>
<!-- Var_y2 -->
<g id="node7" class="node">
<title>Var_y2</title>
<ellipse fill="#f5f5f5" stroke="#757575" cx="59.54" cy="-325" rx="27" ry="14.5"/>
<text text-anchor="middle" x="59.54" y="-322.2" font-family="Helvetica,sans-Serif" font-size="11.00">y2</text>
</g>
<!-- Step_140413718615184 -->
<g id="node10" class="node">
<title>Step_140413718615184</title>
<polygon fill="#fff3e0" stroke="#ef6c00" stroke-width="1.5" points="560.09,-396 381.09,-396 381.09,-392 377.09,-392 377.09,-388 381.09,-388 381.09,-348 377.09,-348 377.09,-344 381.09,-344 381.09,-340 560.09,-340 560.09,-396"/>
<polyline fill="none" stroke="#ef6c00" stroke-width="1.5" points="381.09,-392 385.09,-392 385.09,-388 381.09,-388 "/>
<polyline fill="none" stroke="#ef6c00" stroke-width="1.5" points="381.09,-348 385.09,-348 385.09,-344 381.09,-344 "/>
<text text-anchor="start" x="403.09" y="-366.2" font-family="Helvetica,sans-Serif" font-weight="bold" font-size="11.00">compute_constraint_2</text>
</g>
<!-- Var_y2&#45;&gt;Step_140413718615184 -->
<g id="edge3" class="edge">
<title>Var_y2&#45;&gt;Step_140413718615184</title>
<path fill="none" stroke="#616161" d="M83.04,-332.25C157.93,-332.25 386.19,-332.25 386.19,-332.25 386.19,-332.25 386.19,-333.01 386.19,-333.01"/>
<polygon fill="#616161" stroke="#616161" points="382.69,-329.83 386.19,-339.83 389.69,-329.83 382.69,-329.83"/>
</g>
<!-- Var_y2&#45;&gt;Step_140413256392720 -->
<g id="edge8" class="edge">
<title>Var_y2&#45;&gt;Step_140413256392720</title>
<path fill="none" stroke="#616161" d="M85.92,-321.38C176.78,-321.38 471.19,-321.38 471.19,-321.38 471.19,-321.38 471.19,-301.16 471.19,-301.16"/>
<polygon fill="#616161" stroke="#616161" points="474.69,-301.16 471.19,-291.16 467.69,-301.16 474.69,-301.16"/>
</g>
<!-- Var_y2&#45;&gt;Step_140413256534992 -->
<g id="edge13" class="edge">
<title>Var_y2&#45;&gt;Step_140413256534992</title>
<path fill="none" stroke="#616161" d="M77.54,-314.12C114.85,-314.12 197.19,-314.12 197.19,-314.12 197.19,-314.12 197.19,-231.09 197.19,-231.09"/>
<polygon fill="#616161" stroke="#616161" points="200.69,-231.09 197.19,-221.09 193.69,-231.09 200.69,-231.09"/>
</g>
<!-- Var_y1 -->
<g id="node8" class="node">
<title>Var_y1</title>
<ellipse fill="#f5f5f5" stroke="#757575" cx="318.09" cy="-188" rx="27" ry="14.5"/>
<text text-anchor="middle" x="318.09" y="-185.2" font-family="Helvetica,sans-Serif" font-size="11.00">y1</text>
</g>
<!-- Step_140413718510032 -->
<g id="node9" class="node">
<title>Step_140413718510032</title>
<polygon fill="#fff3e0" stroke="#ef6c00" stroke-width="1.5" points="560.09,-214 381.09,-214 381.09,-210 377.09,-210 377.09,-206 381.09,-206 381.09,-166 377.09,-166 377.09,-162 381.09,-162 381.09,-158 560.09,-158 560.09,-214"/>
<polyline fill="none" stroke="#ef6c00" stroke-width="1.5" points="381.09,-210 385.09,-210 385.09,-206 381.09,-206 "/>
<polyline fill="none" stroke="#ef6c00" stroke-width="1.5" points="381.09,-166 385.09,-166 385.09,-162 381.09,-162 "/>
<text text-anchor="start" x="403.09" y="-184.2" font-family="Helvetica,sans-Serif" font-weight="bold" font-size="11.00">compute_constraint_1</text>
</g>
<!-- Var_y1&#45;&gt;Step_140413718510032 -->
<g id="edge1" class="edge">
<title>Var_y1&#45;&gt;Step_140413718510032</title>
<path fill="none" stroke="#616161" d="M345.35,-188C345.35,-188 370.84,-188 370.84,-188"/>
<polygon fill="#616161" stroke="#616161" points="370.84,-191.5 380.84,-188 370.84,-184.5 370.84,-191.5"/>
</g>
<!-- Var_y1&#45;&gt;Step_140413256392720 -->
<g id="edge7" class="edge">
<title>Var_y1&#45;&gt;Step_140413256392720</title>
<path fill="none" stroke="#616161" d="M318.19,-202.77C318.19,-220.82 318.19,-249 318.19,-249 318.19,-249 380.37,-249 380.37,-249"/>
<polygon fill="#616161" stroke="#616161" points="380.37,-252.5 390.37,-249 380.37,-245.5 380.37,-252.5"/>
</g>
<!-- Var_y1&#45;&gt;Step_140413256566480 -->
<g id="edge17" class="edge">
<title>Var_y1&#45;&gt;Step_140413256566480</title>
<path fill="none" stroke="#616161" d="M318.19,-173.48C318.19,-154.59 318.19,-124 318.19,-124 318.19,-124 402.54,-124 402.54,-124"/>
<polygon fill="#616161" stroke="#616161" points="402.54,-127.5 412.54,-124 402.54,-120.5 402.54,-127.5"/>
</g>
<!-- Step_140413718510032&#45;&gt;Var_constraint_1 -->
<g id="edge2" class="edge">
<title>Step_140413718510032&#45;&gt;Var_constraint_1</title>
<path fill="none" stroke="#616161" d="M560.11,-179.5C560.11,-179.5 619.69,-179.5 619.69,-179.5"/>
<polygon fill="#616161" stroke="#616161" points="619.69,-183 629.69,-179.5 619.69,-176 619.69,-183"/>
</g>
<!-- Step_140413718615184&#45;&gt;Var_constraint_2 -->
<g id="edge4" class="edge">
<title>Step_140413718615184&#45;&gt;Var_constraint_2</title>
<path fill="none" stroke="#616161" d="M560.11,-368C560.11,-368 607.79,-368 607.79,-368"/>
<polygon fill="#616161" stroke="#616161" points="607.79,-371.5 617.79,-368 607.79,-364.5 607.79,-371.5"/>
</g>
<!-- Step_140413256392720&#45;&gt;Var_objective -->
<g id="edge9" class="edge">
<title>Step_140413256392720&#45;&gt;Var_objective</title>
<path fill="none" stroke="#616161" d="M550.6,-263C550.6,-263 622.55,-263 622.55,-263"/>
<polygon fill="#616161" stroke="#616161" points="622.55,-266.5 632.55,-263 622.55,-259.5 622.55,-266.5"/>
</g>
<!-- Step_140413256534992&#45;&gt;Var_y1 -->
<g id="edge14" class="edge">
<title>Step_140413256534992&#45;&gt;Var_y1</title>
<path fill="none" stroke="#616161" d="M255.11,-188C255.11,-188 280.88,-188 280.88,-188"/>
<polygon fill="#616161" stroke="#616161" points="280.88,-191.5 290.88,-188 280.88,-184.5 280.88,-191.5"/>
</g>
<!-- Step_140413256566480&#45;&gt;Var_y2 -->
<g id="edge18" class="edge">
<title>Step_140413256566480&#45;&gt;Var_y2</title>
<path fill="none" stroke="#616161" d="M412.49,-129C387.19,-129 363.19,-129 363.19,-129 363.19,-129 363.19,-317.75 363.19,-317.75 363.19,-317.75 93.37,-317.75 93.37,-317.75"/>
<polygon fill="#616161" stroke="#616161" points="93.37,-314.25 83.37,-317.75 93.37,-321.25 93.37,-314.25"/>
</g>
</g>
</svg>
