<?xml version="1.0" encoding="utf-8" standalone="no"?>
<!DOCTYPE svg PUBLIC "-//W3C//DTD SVG 1.1//EN"
  "http://www.w3.org/Graphics/SVG/1.1/DTD/svg11.dtd">
<svg xmlns:xlink="http://www.w3.org/1999/xlink" width="676.742461pt" height="316.60344pt" viewBox="0 0 676.742461 316.60344" xmlns="http://www.w3.org/2000/svg" version="1.1">
 <metadata>
  <rdf:RDF xmlns:dc="http://purl.org/dc/elements/1.1/" xmlns:cc="http://creativecommons.org/ns#" xmlns:rdf="http://www.w3.org/1999/02/22-rdf-syntax-ns#">
   <cc:Work>
    <dc:type rdf:resource="http://purl.org/dc/dcmitype/StillImage"/>
    <dc:date>2026-07-12T11:45:54.397006</dc:date>
    <dc:format>image/svg+xml</dc:format>
    <dc:creator>
     <cc:Agent>
      <dc:title>Matplotlib v3.10.7, https://matplotlib.org/</dc:title>
     </cc:Agent>
    </dc:creator>
   </cc:Work>
  </rdf:RDF>
 </metadata>
 <defs>
  <style type="text/css">*{stroke-linejoin: round; stroke-linecap: butt}</style>
 </defs>
 <g id="figure_1">
  <g id="patch_1">
   <path d="M 0 316.60344 
L 676.742461 316.60344 
L 676.742461 0 
L 0 0 
z
" style="fill: #ffffff"/>
  </g>
  <g id="axes_1">
   <g id="patch_2">
    <path d="M 118.591235 54.632927 
Q 121.928199 54.632927 123.923522 54.632927 
" clip-path="url(#p784c72c88d)" style="fill: none; stroke: #616161; stroke-width: 1.2; stroke-linecap: round"/>
    <path d="M 119.123522 52.232927 
L 123.923522 54.632927 
L 119.123522 57.032927 
z
" clip-path="url(#p784c72c88d)" style="fill: #616161; stroke: #616161; stroke-width: 1.2; stroke-linecap: round"/>
   </g>
   <g id="patch_3">
    <path d="M 118.586737 103.905 
Q 171.722137 103.905 223.515896 103.905 
" clip-path="url(#p784c72c88d)" style="fill: none; stroke: #616161; stroke-width: 1.2; stroke-linecap: round"/>
    <path d="M 218.715896 101.505 
L 223.515896 103.905 
L 218.715896 106.305 
z
" clip-path="url(#p784c72c88d)" style="fill: #616161; stroke: #616161; stroke-width: 1.2; stroke-linecap: round"/>
   </g>
   <g id="patch_4">
    <path d="M 118.581064 148.983705 
Q 221.512882 148.983705 323.103061 148.983705 
" clip-path="url(#p784c72c88d)" style="fill: none; stroke: #616161; stroke-width: 1.2; stroke-linecap: round"/>
    <path d="M 318.303061 146.583705 
L 323.103061 148.983705 
L 318.303061 151.383705 
z
" clip-path="url(#p784c72c88d)" style="fill: #616161; stroke: #616161; stroke-width: 1.2; stroke-linecap: round"/>
   </g>
   <g id="patch_5">
    <path d="M 372.180259 167.88948 
Q 372.180259 214.194714 372.180259 259.158308 
" clip-path="url(#p784c72c88d)" style="fill: none; stroke: #616161; stroke-width: 1.2; stroke-linecap: round"/>
    <path d="M 374.580259 254.358308 
L 372.180259 259.158308 
L 369.780259 254.358308 
z
" clip-path="url(#p784c72c88d)" style="fill: #616161; stroke: #616161; stroke-width: 1.2; stroke-linecap: round"/>
   </g>
   <g id="patch_6">
    <path d="M 471.772747 211.389377 
Q 471.772747 235.946124 471.772747 259.161231 
" clip-path="url(#p784c72c88d)" style="fill: none; stroke: #616161; stroke-width: 1.2; stroke-linecap: round"/>
    <path d="M 474.172747 254.361231 
L 471.772747 259.161231 
L 469.372747 254.361231 
z
" clip-path="url(#p784c72c88d)" style="fill: #616161; stroke: #616161; stroke-width: 1.2; stroke-linecap: round"/>
   </g>
   <g id="patch_7">
    <path d="M 571.365235 253.322328 
Q 571.365235 256.912672 571.365235 259.161375 
" clip-path="url(#p784c72c88d)" style="fill: none; stroke: #616161; stroke-width: 1.2; stroke-linecap: round"/>
    <path d="M 573.765235 254.361375 
L 571.365235 259.161375 
L 568.965235 254.361375 
z
" clip-path="url(#p784c72c88d)" style="fill: #616161; stroke: #616161; stroke-width: 1.2; stroke-linecap: round"/>
   </g>
   <g id="patch_8">
    <path d="M 277.245066 85.035065 
Q 278.017649 76.782784 276.924499 70.513055 
" clip-path="url(#p784c72c88d)" style="fill: none; stroke-dasharray: 9,5.4; stroke-dashoffset: 0; stroke: #d32f2f; stroke-width: 1.8; stroke-linecap: round"/>
    <path d="M 275.384627 75.65395 
L 276.924499 70.513055 
L 280.113291 74.829489 
z
" clip-path="url(#p784c72c88d)" style="fill: #d32f2f; stroke-dasharray: 9,5.4; stroke-dashoffset: 0; stroke: #d32f2f; stroke-width: 1.8; stroke-linecap: round"/>
   </g>
   <g id="patch_9">
    <path d="M 242.680334 46.262411 
Q 231.705826 44.509107 222.743503 44.657426 
" clip-path="url(#p784c72c88d)" style="fill: none; stroke-dasharray: 9,5.4; stroke-dashoffset: 0; stroke: #d32f2f; stroke-width: 1.8; stroke-linecap: round"/>
    <path d="M 227.582558 46.977672 
L 222.743503 44.657426 
L 227.503133 42.178329 
z
" clip-path="url(#p784c72c88d)" style="fill: #d32f2f; stroke-dasharray: 9,5.4; stroke-dashoffset: 0; stroke: #d32f2f; stroke-width: 1.8; stroke-linecap: round"/>
   </g>
   <g id="patch_10">
    <path d="M 172.995284 73.532635 
Q 172.995284 81.729325 172.995284 88.584374 
" clip-path="url(#p784c72c88d)" style="fill: none; stroke: #616161; stroke-width: 1.2; stroke-linecap: round"/>
    <path d="M 175.395284 83.784374 
L 172.995284 88.584374 
L 170.595284 83.784374 
z
" clip-path="url(#p784c72c88d)" style="fill: #616161; stroke: #616161; stroke-width: 1.2; stroke-linecap: round"/>
   </g>
   <g id="patch_11">
    <path d="M 202.968389 103.905 
Q 213.911966 103.905 223.513902 103.905 
" clip-path="url(#p784c72c88d)" style="fill: none; stroke: #616161; stroke-width: 1.2; stroke-linecap: round"/>
    <path d="M 218.713902 101.505 
L 223.513902 103.905 
L 218.713902 106.305 
z
" clip-path="url(#p784c72c88d)" style="fill: #616161; stroke: #616161; stroke-width: 1.2; stroke-linecap: round"/>
   </g>
   <g id="patch_12">
    <path d="M 172.995284 73.531768 
Q 172.995284 104.265532 172.995284 133.657655 
" clip-path="url(#p784c72c88d)" style="fill: none; stroke: #616161; stroke-width: 1.2; stroke-linecap: round"/>
    <path d="M 175.395284 128.857655 
L 172.995284 133.657655 
L 170.595284 128.857655 
z
" clip-path="url(#p784c72c88d)" style="fill: #616161; stroke: #616161; stroke-width: 1.2; stroke-linecap: round"/>
   </g>
   <g id="patch_13">
    <path d="M 202.96906 148.983705 
Q 263.706722 148.983705 323.102743 148.983705 
" clip-path="url(#p784c72c88d)" style="fill: none; stroke: #616161; stroke-width: 1.2; stroke-linecap: round"/>
    <path d="M 318.302743 146.583705 
L 323.102743 148.983705 
L 318.302743 151.383705 
z
" clip-path="url(#p784c72c88d)" style="fill: #616161; stroke: #616161; stroke-width: 1.2; stroke-linecap: round"/>
   </g>
   <g id="patch_14">
    <path d="M 272.587771 122.806588 
Q 272.587771 128.90406 272.587771 133.659892 
" clip-path="url(#p784c72c88d)" style="fill: none; stroke: #616161; stroke-width: 1.2; stroke-linecap: round"/>
    <path d="M 274.987771 128.859892 
L 272.587771 133.659892 
L 270.187771 128.859892 
z
" clip-path="url(#p784c72c88d)" style="fill: #616161; stroke: #616161; stroke-width: 1.2; stroke-linecap: round"/>
   </g>
   <g id="patch_15">
    <path d="M 302.560877 148.983705 
Q 313.504454 148.983705 323.10639 148.983705 
" clip-path="url(#p784c72c88d)" style="fill: none; stroke: #616161; stroke-width: 1.2; stroke-linecap: round"/>
    <path d="M 318.30639 146.583705 
L 323.10639 148.983705 
L 318.30639 151.383705 
z
" clip-path="url(#p784c72c88d)" style="fill: #616161; stroke: #616161; stroke-width: 1.2; stroke-linecap: round"/>
   </g>
   <g id="patch_16">
    <path d="M 272.587771 122.809636 
Q 272.587771 150.661533 272.587771 177.17179 
" clip-path="url(#p784c72c88d)" style="fill: none; stroke: #616161; stroke-width: 1.2; stroke-linecap: round"/>
    <path d="M 274.987771 172.37179 
L 272.587771 177.17179 
L 270.187771 172.37179 
z
" clip-path="url(#p784c72c88d)" style="fill: #616161; stroke: #616161; stroke-width: 1.2; stroke-linecap: round"/>
   </g>
   <g id="patch_17">
    <path d="M 302.561548 192.489897 
Q 363.29921 192.489897 422.695231 192.489897 
" clip-path="url(#p784c72c88d)" style="fill: none; stroke: #616161; stroke-width: 1.2; stroke-linecap: round"/>
    <path d="M 417.895231 190.089897 
L 422.695231 192.489897 
L 417.895231 194.889897 
z
" clip-path="url(#p784c72c88d)" style="fill: #616161; stroke: #616161; stroke-width: 1.2; stroke-linecap: round"/>
   </g>
   <g id="patch_18">
    <path d="M 172.995284 73.541667 
Q 172.995284 146.988838 172.995284 219.094368 
" clip-path="url(#p784c72c88d)" style="fill: none; stroke: #616161; stroke-width: 1.2; stroke-linecap: round"/>
    <path d="M 175.395284 214.294368 
L 172.995284 219.094368 
L 170.595284 214.294368 
z
" clip-path="url(#p784c72c88d)" style="fill: #616161; stroke: #616161; stroke-width: 1.2; stroke-linecap: round"/>
   </g>
   <g id="patch_19">
    <path d="M 202.965769 234.423576 
Q 363.299433 234.423576 522.291457 234.423576 
" clip-path="url(#p784c72c88d)" style="fill: none; stroke: #616161; stroke-width: 1.2; stroke-linecap: round"/>
    <path d="M 517.491457 232.023576 
L 522.291457 234.423576 
L 517.491457 236.823576 
z
" clip-path="url(#p784c72c88d)" style="fill: #616161; stroke: #616161; stroke-width: 1.2; stroke-linecap: round"/>
   </g>
   <g id="patch_20">
    <path d="M 134.20663 68.785544 
L 211.783937 68.785544 
Q 215.977305 68.785544 215.977305 64.592176 
L 215.977305 44.673678 
Q 215.977305 40.48031 211.783937 40.48031 
L 134.20663 40.48031 
Q 130.013263 40.48031 130.013263 44.673678 
L 130.013263 64.592176 
Q 130.013263 68.785544 134.20663 68.785544 
z
" clip-path="url(#p784c72c88d)" style="fill: #fff3e0; stroke: #ef6c00; stroke-width: 1.5; stroke-linejoin: miter"/>
   </g>
   <g id="patch_21">
    <path d="M 233.799118 118.057617 
L 311.376424 118.057617 
Q 315.569792 118.057617 315.569792 113.864249 
L 315.569792 93.945751 
Q 315.569792 89.752383 311.376424 89.752383 
L 233.799118 89.752383 
Q 229.60575 89.752383 229.60575 93.945751 
L 229.60575 113.864249 
Q 229.60575 118.057617 233.799118 118.057617 
z
" clip-path="url(#p784c72c88d)" style="fill: #fff3e0; stroke: #ef6c00; stroke-width: 1.5; stroke-linejoin: miter"/>
   </g>
   <g id="patch_22">
    <path d="M 333.391606 163.136322 
L 410.968912 163.136322 
Q 415.16228 163.136322 415.16228 158.942954 
L 415.16228 139.024456 
Q 415.16228 134.831088 410.968912 134.831088 
L 333.391606 134.831088 
Q 329.198238 134.831088 329.198238 139.024456 
L 329.198238 158.942954 
Q 329.198238 163.136322 333.391606 163.136322 
z
" clip-path="url(#p784c72c88d)" style="fill: #fff3e0; stroke: #ef6c00; stroke-width: 1.5; stroke-linejoin: miter"/>
   </g>
   <g id="patch_23">
    <path d="M 432.984094 206.642514 
L 510.5614 206.642514 
Q 514.754768 206.642514 514.754768 202.449146 
L 514.754768 182.530648 
Q 514.754768 178.33728 510.5614 178.33728 
L 432.984094 178.33728 
Q 428.790726 178.33728 428.790726 182.530648 
L 428.790726 202.449146 
Q 428.790726 206.642514 432.984094 206.642514 
z
" clip-path="url(#p784c72c88d)" style="fill: #fff3e0; stroke: #ef6c00; stroke-width: 1.5; stroke-linejoin: miter"/>
   </g>
   <g id="patch_24">
    <path d="M 532.576582 248.576193 
L 610.153888 248.576193 
Q 614.347256 248.576193 614.347256 244.382825 
L 614.347256 224.464327 
Q 614.347256 220.270959 610.153888 220.270959 
L 532.576582 220.270959 
Q 528.383214 220.270959 528.383214 224.464327 
L 528.383214 244.382825 
Q 528.383214 248.576193 532.576582 248.576193 
z
" clip-path="url(#p784c72c88d)" style="fill: #fff3e0; stroke: #ef6c00; stroke-width: 1.5; stroke-linejoin: miter"/>
   </g>
   <g id="patch_25">
    <path d="M 62.395205 35.762772 
L 115.336475 35.762772 
L 115.336475 73.503083 
L 62.395205 73.503083 
z
" clip-path="url(#p784c72c88d)" style="fill: #e3f2fd; stroke: #1565c0; stroke-width: 1.5; stroke-linejoin: miter"/>
   </g>
   <g id="patch_26">
    <path d="M 62.395205 89.228212 
L 115.336475 89.228212 
L 115.336475 118.581788 
L 62.395205 118.581788 
z
" clip-path="url(#p784c72c88d)" style="fill: #e3f2fd; stroke: #1565c0; stroke-width: 1.5; stroke-linejoin: miter"/>
   </g>
   <g id="patch_27">
    <path d="M 62.395205 134.306917 
L 115.336475 134.306917 
L 115.336475 163.660493 
L 62.395205 163.660493 
z
" clip-path="url(#p784c72c88d)" style="fill: #e3f2fd; stroke: #1565c0; stroke-width: 1.5; stroke-linejoin: miter"/>
   </g>
   <g id="patch_28">
    <path d="M 335.619333 263.25298 
L 408.741186 263.25298 
L 408.741186 284.21982 
L 335.619333 284.21982 
z
" clip-path="url(#p784c72c88d)" style="fill: #e8f5e9; stroke: #2e7d32; stroke-width: 2.5; stroke-linejoin: miter"/>
   </g>
   <g id="patch_29">
    <path d="M 430.88741 263.25298 
L 512.658084 263.25298 
L 512.658084 284.21982 
L 430.88741 284.21982 
z
" clip-path="url(#p784c72c88d)" style="fill: #e8f5e9; stroke: #2e7d32; stroke-width: 2.5; stroke-linejoin: miter"/>
   </g>
   <g id="patch_30">
    <path d="M 530.479898 263.25298 
L 612.250572 263.25298 
L 612.250572 284.21982 
L 530.479898 284.21982 
z
" clip-path="url(#p784c72c88d)" style="fill: #e8f5e9; stroke: #2e7d32; stroke-width: 2.5; stroke-linejoin: miter"/>
   </g>
   <g id="patch_31">
    <path d="M 246.117136 44.149507 
L 299.058406 44.149507 
L 299.058406 65.116347 
L 246.117136 65.116347 
z
" clip-path="url(#p784c72c88d)" style="fill: #f5f5f5; stroke: #757575; stroke-linejoin: miter"/>
   </g>
   <g id="patch_32">
    <path d="M 146.524649 93.42158 
L 199.465918 93.42158 
L 199.465918 114.38842 
L 146.524649 114.38842 
z
" clip-path="url(#p784c72c88d)" style="fill: #f5f5f5; stroke: #757575; stroke-linejoin: miter"/>
   </g>
   <g id="patch_33">
    <path d="M 146.524649 138.500285 
L 199.465918 138.500285 
L 199.465918 159.467125 
L 146.524649 159.467125 
z
" clip-path="url(#p784c72c88d)" style="fill: #f5f5f5; stroke: #757575; stroke-linejoin: miter"/>
   </g>
   <g id="patch_34">
    <path d="M 246.117136 138.500285 
L 299.058406 138.500285 
L 299.058406 159.467125 
L 246.117136 159.467125 
z
" clip-path="url(#p784c72c88d)" style="fill: #f5f5f5; stroke: #757575; stroke-linejoin: miter"/>
   </g>
   <g id="patch_35">
    <path d="M 246.117136 182.006477 
L 299.058406 182.006477 
L 299.058406 202.973317 
L 246.117136 202.973317 
z
" clip-path="url(#p784c72c88d)" style="fill: #f5f5f5; stroke: #757575; stroke-linejoin: miter"/>
   </g>
   <g id="patch_36">
    <path d="M 146.524649 223.940156 
L 199.465918 223.940156 
L 199.465918 244.906996 
L 146.524649 244.906996 
z
" clip-path="url(#p784c72c88d)" style="fill: #f5f5f5; stroke: #757575; stroke-linejoin: miter"/>
   </g>
   <g id="text_1">
    <!-- discipline_1 -->
    <g transform="translate(136.82333 57.515271) scale(0.11 -0.11)">
     <defs>
      <path id="DejaVuSans-Bold-64" d="M 2919 2988 
L 2919 4863 
L 4044 4863 
L 4044 0 
L 2919 0 
L 2919 506 
Q 2688 197 2409 53 
Q 2131 -91 1766 -91 
Q 1119 -91 703 423 
Q 288 938 288 1747 
Q 288 2556 703 3070 
Q 1119 3584 1766 3584 
Q 2128 3584 2408 3439 
Q 2688 3294 2919 2988 
z
M 2181 722 
Q 2541 722 2730 984 
Q 2919 1247 2919 1747 
Q 2919 2247 2730 2509 
Q 2541 2772 2181 2772 
Q 1825 2772 1636 2509 
Q 1447 2247 1447 1747 
Q 1447 1247 1636 984 
Q 1825 722 2181 722 
z
" transform="scale(0.015625)"/>
      <path id="DejaVuSans-Bold-69" d="M 538 3500 
L 1656 3500 
L 1656 0 
L 538 0 
L 538 3500 
z
M 538 4863 
L 1656 4863 
L 1656 3950 
L 538 3950 
L 538 4863 
z
" transform="scale(0.015625)"/>
      <path id="DejaVuSans-Bold-73" d="M 3272 3391 
L 3272 2541 
Q 2913 2691 2578 2766 
Q 2244 2841 1947 2841 
Q 1628 2841 1473 2761 
Q 1319 2681 1319 2516 
Q 1319 2381 1436 2309 
Q 1553 2238 1856 2203 
L 2053 2175 
Q 2913 2066 3209 1816 
Q 3506 1566 3506 1031 
Q 3506 472 3093 190 
Q 2681 -91 1863 -91 
Q 1516 -91 1145 -36 
Q 775 19 384 128 
L 384 978 
Q 719 816 1070 734 
Q 1422 653 1784 653 
Q 2113 653 2278 743 
Q 2444 834 2444 1013 
Q 2444 1163 2330 1236 
Q 2216 1309 1875 1350 
L 1678 1375 
Q 931 1469 631 1722 
Q 331 1975 331 2491 
Q 331 3047 712 3315 
Q 1094 3584 1881 3584 
Q 2191 3584 2531 3537 
Q 2872 3491 3272 3391 
z
" transform="scale(0.015625)"/>
      <path id="DejaVuSans-Bold-63" d="M 3366 3391 
L 3366 2478 
Q 3138 2634 2908 2709 
Q 2678 2784 2431 2784 
Q 1963 2784 1702 2511 
Q 1441 2238 1441 1747 
Q 1441 1256 1702 982 
Q 1963 709 2431 709 
Q 2694 709 2930 787 
Q 3166 866 3366 1019 
L 3366 103 
Q 3103 6 2833 -42 
Q 2563 -91 2291 -91 
Q 1344 -91 809 395 
Q 275 881 275 1747 
Q 275 2613 809 3098 
Q 1344 3584 2291 3584 
Q 2566 3584 2833 3536 
Q 3100 3488 3366 3391 
z
" transform="scale(0.015625)"/>
      <path id="DejaVuSans-Bold-70" d="M 1656 506 
L 1656 -1331 
L 538 -1331 
L 538 3500 
L 1656 3500 
L 1656 2988 
Q 1888 3294 2169 3439 
Q 2450 3584 2816 3584 
Q 3463 3584 3878 3070 
Q 4294 2556 4294 1747 
Q 4294 938 3878 423 
Q 3463 -91 2816 -91 
Q 2450 -91 2169 54 
Q 1888 200 1656 506 
z
M 2400 2772 
Q 2041 2772 1848 2508 
Q 1656 2244 1656 1747 
Q 1656 1250 1848 986 
Q 2041 722 2400 722 
Q 2759 722 2948 984 
Q 3138 1247 3138 1747 
Q 3138 2247 2948 2509 
Q 2759 2772 2400 2772 
z
" transform="scale(0.015625)"/>
      <path id="DejaVuSans-Bold-6c" d="M 538 4863 
L 1656 4863 
L 1656 0 
L 538 0 
L 538 4863 
z
" transform="scale(0.015625)"/>
      <path id="DejaVuSans-Bold-6e" d="M 4056 2131 
L 4056 0 
L 2931 0 
L 2931 347 
L 2931 1631 
Q 2931 2084 2911 2256 
Q 2891 2428 2841 2509 
Q 2775 2619 2662 2680 
Q 2550 2741 2406 2741 
Q 2056 2741 1856 2470 
Q 1656 2200 1656 1722 
L 1656 0 
L 538 0 
L 538 3500 
L 1656 3500 
L 1656 2988 
Q 1909 3294 2193 3439 
Q 2478 3584 2822 3584 
Q 3428 3584 3742 3212 
Q 4056 2841 4056 2131 
z
" transform="scale(0.015625)"/>
      <path id="DejaVuSans-Bold-65" d="M 4031 1759 
L 4031 1441 
L 1416 1441 
Q 1456 1047 1700 850 
Q 1944 653 2381 653 
Q 2734 653 3104 758 
Q 3475 863 3866 1075 
L 3866 213 
Q 3469 63 3072 -14 
Q 2675 -91 2278 -91 
Q 1328 -91 801 392 
Q 275 875 275 1747 
Q 275 2603 792 3093 
Q 1309 3584 2216 3584 
Q 3041 3584 3536 3087 
Q 4031 2591 4031 1759 
z
M 2881 2131 
Q 2881 2450 2695 2645 
Q 2509 2841 2209 2841 
Q 1884 2841 1681 2658 
Q 1478 2475 1428 2131 
L 2881 2131 
z
" transform="scale(0.015625)"/>
      <path id="DejaVuSans-Bold-5f" d="M 3200 -916 
L 3200 -1509 
L 0 -1509 
L 0 -916 
L 3200 -916 
z
" transform="scale(0.015625)"/>
      <path id="DejaVuSans-Bold-31" d="M 750 831 
L 1813 831 
L 1813 3847 
L 722 3622 
L 722 4441 
L 1806 4666 
L 2950 4666 
L 2950 831 
L 4013 831 
L 4013 0 
L 750 0 
L 750 831 
z
" transform="scale(0.015625)"/>
     </defs>
     <use xlink:href="#DejaVuSans-Bold-64"/>
     <use xlink:href="#DejaVuSans-Bold-69" transform="translate(71.582031 0)"/>
     <use xlink:href="#DejaVuSans-Bold-73" transform="translate(105.859375 0)"/>
     <use xlink:href="#DejaVuSans-Bold-63" transform="translate(165.380859 0)"/>
     <use xlink:href="#DejaVuSans-Bold-69" transform="translate(224.658203 0)"/>
     <use xlink:href="#DejaVuSans-Bold-70" transform="translate(258.935547 0)"/>
     <use xlink:href="#DejaVuSans-Bold-6c" transform="translate(330.517578 0)"/>
     <use xlink:href="#DejaVuSans-Bold-69" transform="translate(364.794922 0)"/>
     <use xlink:href="#DejaVuSans-Bold-6e" transform="translate(399.072266 0)"/>
     <use xlink:href="#DejaVuSans-Bold-65" transform="translate(470.263672 0)"/>
     <use xlink:href="#DejaVuSans-Bold-5f" transform="translate(538.085938 0)"/>
     <use xlink:href="#DejaVuSans-Bold-31" transform="translate(588.085938 0)"/>
    </g>
   </g>
   <g id="text_2">
    <!-- discipline_2 -->
    <g transform="translate(236.415818 106.787344) scale(0.11 -0.11)">
     <defs>
      <path id="DejaVuSans-Bold-32" d="M 1844 884 
L 3897 884 
L 3897 0 
L 506 0 
L 506 884 
L 2209 2388 
Q 2438 2594 2547 2791 
Q 2656 2988 2656 3200 
Q 2656 3528 2436 3728 
Q 2216 3928 1850 3928 
Q 1569 3928 1234 3808 
Q 900 3688 519 3450 
L 519 4475 
Q 925 4609 1322 4679 
Q 1719 4750 2100 4750 
Q 2938 4750 3402 4381 
Q 3866 4013 3866 3353 
Q 3866 2972 3669 2642 
Q 3472 2313 2841 1759 
L 1844 884 
z
" transform="scale(0.015625)"/>
     </defs>
     <use xlink:href="#DejaVuSans-Bold-64"/>
     <use xlink:href="#DejaVuSans-Bold-69" transform="translate(71.582031 0)"/>
     <use xlink:href="#DejaVuSans-Bold-73" transform="translate(105.859375 0)"/>
     <use xlink:href="#DejaVuSans-Bold-63" transform="translate(165.380859 0)"/>
     <use xlink:href="#DejaVuSans-Bold-69" transform="translate(224.658203 0)"/>
     <use xlink:href="#DejaVuSans-Bold-70" transform="translate(258.935547 0)"/>
     <use xlink:href="#DejaVuSans-Bold-6c" transform="translate(330.517578 0)"/>
     <use xlink:href="#DejaVuSans-Bold-69" transform="translate(364.794922 0)"/>
     <use xlink:href="#DejaVuSans-Bold-6e" transform="translate(399.072266 0)"/>
     <use xlink:href="#DejaVuSans-Bold-65" transform="translate(470.263672 0)"/>
     <use xlink:href="#DejaVuSans-Bold-5f" transform="translate(538.085938 0)"/>
     <use xlink:href="#DejaVuSans-Bold-32" transform="translate(588.085938 0)"/>
    </g>
   </g>
   <g id="text_3">
    <!-- compute_objective -->
    <g transform="translate(323.278111 151.407494) scale(0.0925 -0.0925)">
     <defs>
      <path id="DejaVuSans-Bold-6f" d="M 2203 2784 
Q 1831 2784 1636 2517 
Q 1441 2250 1441 1747 
Q 1441 1244 1636 976 
Q 1831 709 2203 709 
Q 2569 709 2762 976 
Q 2956 1244 2956 1747 
Q 2956 2250 2762 2517 
Q 2569 2784 2203 2784 
z
M 2203 3584 
Q 3106 3584 3614 3096 
Q 4122 2609 4122 1747 
Q 4122 884 3614 396 
Q 3106 -91 2203 -91 
Q 1297 -91 786 396 
Q 275 884 275 1747 
Q 275 2609 786 3096 
Q 1297 3584 2203 3584 
z
" transform="scale(0.015625)"/>
      <path id="DejaVuSans-Bold-6d" d="M 3781 2919 
Q 3994 3244 4286 3414 
Q 4578 3584 4928 3584 
Q 5531 3584 5847 3212 
Q 6163 2841 6163 2131 
L 6163 0 
L 5038 0 
L 5038 1825 
Q 5041 1866 5042 1909 
Q 5044 1953 5044 2034 
Q 5044 2406 4934 2573 
Q 4825 2741 4581 2741 
Q 4263 2741 4089 2478 
Q 3916 2216 3909 1719 
L 3909 0 
L 2784 0 
L 2784 1825 
Q 2784 2406 2684 2573 
Q 2584 2741 2328 2741 
Q 2006 2741 1831 2477 
Q 1656 2213 1656 1722 
L 1656 0 
L 531 0 
L 531 3500 
L 1656 3500 
L 1656 2988 
Q 1863 3284 2130 3434 
Q 2397 3584 2719 3584 
Q 3081 3584 3359 3409 
Q 3638 3234 3781 2919 
z
" transform="scale(0.015625)"/>
      <path id="DejaVuSans-Bold-75" d="M 500 1363 
L 500 3500 
L 1625 3500 
L 1625 3150 
Q 1625 2866 1622 2436 
Q 1619 2006 1619 1863 
Q 1619 1441 1641 1255 
Q 1663 1069 1716 984 
Q 1784 875 1895 815 
Q 2006 756 2150 756 
Q 2500 756 2700 1025 
Q 2900 1294 2900 1772 
L 2900 3500 
L 4019 3500 
L 4019 0 
L 2900 0 
L 2900 506 
Q 2647 200 2364 54 
Q 2081 -91 1741 -91 
Q 1134 -91 817 281 
Q 500 653 500 1363 
z
" transform="scale(0.015625)"/>
      <path id="DejaVuSans-Bold-74" d="M 1759 4494 
L 1759 3500 
L 2913 3500 
L 2913 2700 
L 1759 2700 
L 1759 1216 
Q 1759 972 1856 886 
Q 1953 800 2241 800 
L 2816 800 
L 2816 0 
L 1856 0 
Q 1194 0 917 276 
Q 641 553 641 1216 
L 641 2700 
L 84 2700 
L 84 3500 
L 641 3500 
L 641 4494 
L 1759 4494 
z
" transform="scale(0.015625)"/>
      <path id="DejaVuSans-Bold-62" d="M 2400 722 
Q 2759 722 2948 984 
Q 3138 1247 3138 1747 
Q 3138 2247 2948 2509 
Q 2759 2772 2400 2772 
Q 2041 2772 1848 2508 
Q 1656 2244 1656 1747 
Q 1656 1250 1848 986 
Q 2041 722 2400 722 
z
M 1656 2988 
Q 1888 3294 2169 3439 
Q 2450 3584 2816 3584 
Q 3463 3584 3878 3070 
Q 4294 2556 4294 1747 
Q 4294 938 3878 423 
Q 3463 -91 2816 -91 
Q 2450 -91 2169 54 
Q 1888 200 1656 506 
L 1656 0 
L 538 0 
L 538 4863 
L 1656 4863 
L 1656 2988 
z
" transform="scale(0.015625)"/>
      <path id="DejaVuSans-Bold-6a" d="M 538 3500 
L 1656 3500 
L 1656 63 
Q 1656 -641 1318 -1011 
Q 981 -1381 341 -1381 
L -213 -1381 
L -213 -647 
L -19 -647 
Q 300 -647 419 -503 
Q 538 -359 538 63 
L 538 3500 
z
M 538 4863 
L 1656 4863 
L 1656 3950 
L 538 3950 
L 538 4863 
z
" transform="scale(0.015625)"/>
      <path id="DejaVuSans-Bold-76" d="M 97 3500 
L 1216 3500 
L 2088 1081 
L 2956 3500 
L 4078 3500 
L 2700 0 
L 1472 0 
L 97 3500 
z
" transform="scale(0.015625)"/>
     </defs>
     <use xlink:href="#DejaVuSans-Bold-63"/>
     <use xlink:href="#DejaVuSans-Bold-6f" transform="translate(59.277344 0)"/>
     <use xlink:href="#DejaVuSans-Bold-6d" transform="translate(127.978516 0)"/>
     <use xlink:href="#DejaVuSans-Bold-70" transform="translate(232.177734 0)"/>
     <use xlink:href="#DejaVuSans-Bold-75" transform="translate(303.759766 0)"/>
     <use xlink:href="#DejaVuSans-Bold-74" transform="translate(374.951172 0)"/>
     <use xlink:href="#DejaVuSans-Bold-65" transform="translate(422.753906 0)"/>
     <use xlink:href="#DejaVuSans-Bold-5f" transform="translate(490.576172 0)"/>
     <use xlink:href="#DejaVuSans-Bold-6f" transform="translate(540.576172 0)"/>
     <use xlink:href="#DejaVuSans-Bold-62" transform="translate(609.277344 0)"/>
     <use xlink:href="#DejaVuSans-Bold-6a" transform="translate(680.859375 0)"/>
     <use xlink:href="#DejaVuSans-Bold-65" transform="translate(715.136719 0)"/>
     <use xlink:href="#DejaVuSans-Bold-63" transform="translate(782.958984 0)"/>
     <use xlink:href="#DejaVuSans-Bold-74" transform="translate(842.236328 0)"/>
     <use xlink:href="#DejaVuSans-Bold-69" transform="translate(890.039062 0)"/>
     <use xlink:href="#DejaVuSans-Bold-76" transform="translate(924.316406 0)"/>
     <use xlink:href="#DejaVuSans-Bold-65" transform="translate(989.501953 0)"/>
    </g>
   </g>
   <g id="text_4">
    <!-- compute_constraint_2 -->
    <g transform="translate(421.067919 194.638553) scale(0.082 -0.082)">
     <defs>
      <path id="DejaVuSans-Bold-72" d="M 3138 2547 
Q 2991 2616 2845 2648 
Q 2700 2681 2553 2681 
Q 2122 2681 1889 2404 
Q 1656 2128 1656 1613 
L 1656 0 
L 538 0 
L 538 3500 
L 1656 3500 
L 1656 2925 
Q 1872 3269 2151 3426 
Q 2431 3584 2822 3584 
Q 2878 3584 2943 3579 
Q 3009 3575 3134 3559 
L 3138 2547 
z
" transform="scale(0.015625)"/>
      <path id="DejaVuSans-Bold-61" d="M 2106 1575 
Q 1756 1575 1579 1456 
Q 1403 1338 1403 1106 
Q 1403 894 1545 773 
Q 1688 653 1941 653 
Q 2256 653 2472 879 
Q 2688 1106 2688 1447 
L 2688 1575 
L 2106 1575 
z
M 3816 1997 
L 3816 0 
L 2688 0 
L 2688 519 
Q 2463 200 2181 54 
Q 1900 -91 1497 -91 
Q 953 -91 614 226 
Q 275 544 275 1050 
Q 275 1666 698 1953 
Q 1122 2241 2028 2241 
L 2688 2241 
L 2688 2328 
Q 2688 2594 2478 2717 
Q 2269 2841 1825 2841 
Q 1466 2841 1156 2769 
Q 847 2697 581 2553 
L 581 3406 
Q 941 3494 1303 3539 
Q 1666 3584 2028 3584 
Q 2975 3584 3395 3211 
Q 3816 2838 3816 1997 
z
" transform="scale(0.015625)"/>
     </defs>
     <use xlink:href="#DejaVuSans-Bold-63"/>
     <use xlink:href="#DejaVuSans-Bold-6f" transform="translate(59.277344 0)"/>
     <use xlink:href="#DejaVuSans-Bold-6d" transform="translate(127.978516 0)"/>
     <use xlink:href="#DejaVuSans-Bold-70" transform="translate(232.177734 0)"/>
     <use xlink:href="#DejaVuSans-Bold-75" transform="translate(303.759766 0)"/>
     <use xlink:href="#DejaVuSans-Bold-74" transform="translate(374.951172 0)"/>
     <use xlink:href="#DejaVuSans-Bold-65" transform="translate(422.753906 0)"/>
     <use xlink:href="#DejaVuSans-Bold-5f" transform="translate(490.576172 0)"/>
     <use xlink:href="#DejaVuSans-Bold-63" transform="translate(540.576172 0)"/>
     <use xlink:href="#DejaVuSans-Bold-6f" transform="translate(599.853516 0)"/>
     <use xlink:href="#DejaVuSans-Bold-6e" transform="translate(668.554688 0)"/>
     <use xlink:href="#DejaVuSans-Bold-73" transform="translate(739.746094 0)"/>
     <use xlink:href="#DejaVuSans-Bold-74" transform="translate(799.267578 0)"/>
     <use xlink:href="#DejaVuSans-Bold-72" transform="translate(847.070312 0)"/>
     <use xlink:href="#DejaVuSans-Bold-61" transform="translate(896.386719 0)"/>
     <use xlink:href="#DejaVuSans-Bold-69" transform="translate(963.867188 0)"/>
     <use xlink:href="#DejaVuSans-Bold-6e" transform="translate(998.144531 0)"/>
     <use xlink:href="#DejaVuSans-Bold-74" transform="translate(1069.335938 0)"/>
     <use xlink:href="#DejaVuSans-Bold-5f" transform="translate(1117.138672 0)"/>
     <use xlink:href="#DejaVuSans-Bold-32" transform="translate(1167.138672 0)"/>
    </g>
   </g>
   <g id="text_5">
    <!-- compute_constraint_1 -->
    <g transform="translate(520.660407 236.572232) scale(0.082 -0.082)">
     <use xlink:href="#DejaVuSans-Bold-63"/>
     <use xlink:href="#DejaVuSans-Bold-6f" transform="translate(59.277344 0)"/>
     <use xlink:href="#DejaVuSans-Bold-6d" transform="translate(127.978516 0)"/>
     <use xlink:href="#DejaVuSans-Bold-70" transform="translate(232.177734 0)"/>
     <use xlink:href="#DejaVuSans-Bold-75" transform="translate(303.759766 0)"/>
     <use xlink:href="#DejaVuSans-Bold-74" transform="translate(374.951172 0)"/>
     <use xlink:href="#DejaVuSans-Bold-65" transform="translate(422.753906 0)"/>
     <use xlink:href="#DejaVuSans-Bold-5f" transform="translate(490.576172 0)"/>
     <use xlink:href="#DejaVuSans-Bold-63" transform="translate(540.576172 0)"/>
     <use xlink:href="#DejaVuSans-Bold-6f" transform="translate(599.853516 0)"/>
     <use xlink:href="#DejaVuSans-Bold-6e" transform="translate(668.554688 0)"/>
     <use xlink:href="#DejaVuSans-Bold-73" transform="translate(739.746094 0)"/>
     <use xlink:href="#DejaVuSans-Bold-74" transform="translate(799.267578 0)"/>
     <use xlink:href="#DejaVuSans-Bold-72" transform="translate(847.070312 0)"/>
     <use xlink:href="#DejaVuSans-Bold-61" transform="translate(896.386719 0)"/>
     <use xlink:href="#DejaVuSans-Bold-69" transform="translate(963.867188 0)"/>
     <use xlink:href="#DejaVuSans-Bold-6e" transform="translate(998.144531 0)"/>
     <use xlink:href="#DejaVuSans-Bold-74" transform="translate(1069.335938 0)"/>
     <use xlink:href="#DejaVuSans-Bold-5f" transform="translate(1117.138672 0)"/>
     <use xlink:href="#DejaVuSans-Bold-31" transform="translate(1167.138672 0)"/>
    </g>
   </g>
   <g id="text_6">
    <!-- x1 -->
    <g transform="translate(83.339277 47.038333) scale(0.09 -0.09)">
     <defs>
      <path id="DejaVuSans-78" d="M 3513 3500 
L 2247 1797 
L 3578 0 
L 2900 0 
L 1881 1375 
L 863 0 
L 184 0 
L 1544 1831 
L 300 3500 
L 978 3500 
L 1906 2253 
L 2834 3500 
L 3513 3500 
z
" transform="scale(0.015625)"/>
      <path id="DejaVuSans-31" d="M 794 531 
L 1825 531 
L 1825 4091 
L 703 3866 
L 703 4441 
L 1819 4666 
L 2450 4666 
L 2450 531 
L 3481 531 
L 3481 0 
L 794 0 
L 794 531 
z
" transform="scale(0.015625)"/>
     </defs>
     <use xlink:href="#DejaVuSans-78"/>
     <use xlink:href="#DejaVuSans-31" transform="translate(59.179688 0)"/>
    </g>
    <!-- z1 -->
    <g transform="translate(83.640918 57.116365) scale(0.09 -0.09)">
     <defs>
      <path id="DejaVuSans-7a" d="M 353 3500 
L 3084 3500 
L 3084 2975 
L 922 459 
L 3084 459 
L 3084 0 
L 275 0 
L 275 525 
L 2438 3041 
L 353 3041 
L 353 3500 
z
" transform="scale(0.015625)"/>
     </defs>
     <use xlink:href="#DejaVuSans-7a"/>
     <use xlink:href="#DejaVuSans-31" transform="translate(52.490234 0)"/>
    </g>
    <!-- z2 -->
    <g transform="translate(83.640918 67.194396) scale(0.09 -0.09)">
     <defs>
      <path id="DejaVuSans-32" d="M 1228 531 
L 3431 531 
L 3431 0 
L 469 0 
L 469 531 
Q 828 903 1448 1529 
Q 2069 2156 2228 2338 
Q 2531 2678 2651 2914 
Q 2772 3150 2772 3378 
Q 2772 3750 2511 3984 
Q 2250 4219 1831 4219 
Q 1534 4219 1204 4116 
Q 875 4013 500 3803 
L 500 4441 
Q 881 4594 1212 4672 
Q 1544 4750 1819 4750 
Q 2544 4750 2975 4387 
Q 3406 4025 3406 3419 
Q 3406 3131 3298 2873 
Q 3191 2616 2906 2266 
Q 2828 2175 2409 1742 
Q 1991 1309 1228 531 
z
" transform="scale(0.015625)"/>
     </defs>
     <use xlink:href="#DejaVuSans-7a"/>
     <use xlink:href="#DejaVuSans-32" transform="translate(52.490234 0)"/>
    </g>
   </g>
   <g id="text_7">
    <!-- z1 -->
    <g transform="translate(83.640918 101.349422) scale(0.09 -0.09)">
     <use xlink:href="#DejaVuSans-7a"/>
     <use xlink:href="#DejaVuSans-31" transform="translate(52.490234 0)"/>
    </g>
    <!-- z2 -->
    <g transform="translate(83.640918 111.427453) scale(0.09 -0.09)">
     <use xlink:href="#DejaVuSans-7a"/>
     <use xlink:href="#DejaVuSans-32" transform="translate(52.490234 0)"/>
    </g>
   </g>
   <g id="text_8">
    <!-- x1 -->
    <g transform="translate(83.339277 146.428127) scale(0.09 -0.09)">
     <use xlink:href="#DejaVuSans-78"/>
     <use xlink:href="#DejaVuSans-31" transform="translate(59.179688 0)"/>
    </g>
    <!-- z2 -->
    <g transform="translate(83.640918 156.506158) scale(0.09 -0.09)">
     <use xlink:href="#DejaVuSans-7a"/>
     <use xlink:href="#DejaVuSans-32" transform="translate(52.490234 0)"/>
    </g>
   </g>
   <g id="text_9">
    <!-- objective -->
    <g transform="translate(351.630025 276.219838) scale(0.09 -0.09)">
     <defs>
      <path id="DejaVuSans-6f" d="M 1959 3097 
Q 1497 3097 1228 2736 
Q 959 2375 959 1747 
Q 959 1119 1226 758 
Q 1494 397 1959 397 
Q 2419 397 2687 759 
Q 2956 1122 2956 1747 
Q 2956 2369 2687 2733 
Q 2419 3097 1959 3097 
z
M 1959 3584 
Q 2709 3584 3137 3096 
Q 3566 2609 3566 1747 
Q 3566 888 3137 398 
Q 2709 -91 1959 -91 
Q 1206 -91 779 398 
Q 353 888 353 1747 
Q 353 2609 779 3096 
Q 1206 3584 1959 3584 
z
" transform="scale(0.015625)"/>
      <path id="DejaVuSans-62" d="M 3116 1747 
Q 3116 2381 2855 2742 
Q 2594 3103 2138 3103 
Q 1681 3103 1420 2742 
Q 1159 2381 1159 1747 
Q 1159 1113 1420 752 
Q 1681 391 2138 391 
Q 2594 391 2855 752 
Q 3116 1113 3116 1747 
z
M 1159 2969 
Q 1341 3281 1617 3432 
Q 1894 3584 2278 3584 
Q 2916 3584 3314 3078 
Q 3713 2572 3713 1747 
Q 3713 922 3314 415 
Q 2916 -91 2278 -91 
Q 1894 -91 1617 61 
Q 1341 213 1159 525 
L 1159 0 
L 581 0 
L 581 4863 
L 1159 4863 
L 1159 2969 
z
" transform="scale(0.015625)"/>
      <path id="DejaVuSans-6a" d="M 603 3500 
L 1178 3500 
L 1178 -63 
Q 1178 -731 923 -1031 
Q 669 -1331 103 -1331 
L -116 -1331 
L -116 -844 
L 38 -844 
Q 366 -844 484 -692 
Q 603 -541 603 -63 
L 603 3500 
z
M 603 4863 
L 1178 4863 
L 1178 4134 
L 603 4134 
L 603 4863 
z
" transform="scale(0.015625)"/>
      <path id="DejaVuSans-65" d="M 3597 1894 
L 3597 1613 
L 953 1613 
Q 991 1019 1311 708 
Q 1631 397 2203 397 
Q 2534 397 2845 478 
Q 3156 559 3463 722 
L 3463 178 
Q 3153 47 2828 -22 
Q 2503 -91 2169 -91 
Q 1331 -91 842 396 
Q 353 884 353 1716 
Q 353 2575 817 3079 
Q 1281 3584 2069 3584 
Q 2775 3584 3186 3129 
Q 3597 2675 3597 1894 
z
M 3022 2063 
Q 3016 2534 2758 2815 
Q 2500 3097 2075 3097 
Q 1594 3097 1305 2825 
Q 1016 2553 972 2059 
L 3022 2063 
z
" transform="scale(0.015625)"/>
      <path id="DejaVuSans-63" d="M 3122 3366 
L 3122 2828 
Q 2878 2963 2633 3030 
Q 2388 3097 2138 3097 
Q 1578 3097 1268 2742 
Q 959 2388 959 1747 
Q 959 1106 1268 751 
Q 1578 397 2138 397 
Q 2388 397 2633 464 
Q 2878 531 3122 666 
L 3122 134 
Q 2881 22 2623 -34 
Q 2366 -91 2075 -91 
Q 1284 -91 818 406 
Q 353 903 353 1747 
Q 353 2603 823 3093 
Q 1294 3584 2113 3584 
Q 2378 3584 2631 3529 
Q 2884 3475 3122 3366 
z
" transform="scale(0.015625)"/>
      <path id="DejaVuSans-74" d="M 1172 4494 
L 1172 3500 
L 2356 3500 
L 2356 3053 
L 1172 3053 
L 1172 1153 
Q 1172 725 1289 603 
Q 1406 481 1766 481 
L 2356 481 
L 2356 0 
L 1766 0 
Q 1100 0 847 248 
Q 594 497 594 1153 
L 594 3053 
L 172 3053 
L 172 3500 
L 594 3500 
L 594 4494 
L 1172 4494 
z
" transform="scale(0.015625)"/>
      <path id="DejaVuSans-69" d="M 603 3500 
L 1178 3500 
L 1178 0 
L 603 0 
L 603 3500 
z
M 603 4863 
L 1178 4863 
L 1178 4134 
L 603 4134 
L 603 4863 
z
" transform="scale(0.015625)"/>
      <path id="DejaVuSans-76" d="M 191 3500 
L 800 3500 
L 1894 563 
L 2988 3500 
L 3597 3500 
L 2284 0 
L 1503 0 
L 191 3500 
z
" transform="scale(0.015625)"/>
     </defs>
     <use xlink:href="#DejaVuSans-6f"/>
     <use xlink:href="#DejaVuSans-62" transform="translate(61.181641 0)"/>
     <use xlink:href="#DejaVuSans-6a" transform="translate(124.658203 0)"/>
     <use xlink:href="#DejaVuSans-65" transform="translate(152.441406 0)"/>
     <use xlink:href="#DejaVuSans-63" transform="translate(213.964844 0)"/>
     <use xlink:href="#DejaVuSans-74" transform="translate(268.945312 0)"/>
     <use xlink:href="#DejaVuSans-69" transform="translate(308.154297 0)"/>
     <use xlink:href="#DejaVuSans-76" transform="translate(335.9375 0)"/>
     <use xlink:href="#DejaVuSans-65" transform="translate(395.117188 0)"/>
    </g>
   </g>
   <g id="text_10">
    <!-- constraint_2 -->
    <g transform="translate(443.997903 276.094681) scale(0.09 -0.09)">
     <defs>
      <path id="DejaVuSans-6e" d="M 3513 2113 
L 3513 0 
L 2938 0 
L 2938 2094 
Q 2938 2591 2744 2837 
Q 2550 3084 2163 3084 
Q 1697 3084 1428 2787 
Q 1159 2491 1159 1978 
L 1159 0 
L 581 0 
L 581 3500 
L 1159 3500 
L 1159 2956 
Q 1366 3272 1645 3428 
Q 1925 3584 2291 3584 
Q 2894 3584 3203 3211 
Q 3513 2838 3513 2113 
z
" transform="scale(0.015625)"/>
      <path id="DejaVuSans-73" d="M 2834 3397 
L 2834 2853 
Q 2591 2978 2328 3040 
Q 2066 3103 1784 3103 
Q 1356 3103 1142 2972 
Q 928 2841 928 2578 
Q 928 2378 1081 2264 
Q 1234 2150 1697 2047 
L 1894 2003 
Q 2506 1872 2764 1633 
Q 3022 1394 3022 966 
Q 3022 478 2636 193 
Q 2250 -91 1575 -91 
Q 1294 -91 989 -36 
Q 684 19 347 128 
L 347 722 
Q 666 556 975 473 
Q 1284 391 1588 391 
Q 1994 391 2212 530 
Q 2431 669 2431 922 
Q 2431 1156 2273 1281 
Q 2116 1406 1581 1522 
L 1381 1569 
Q 847 1681 609 1914 
Q 372 2147 372 2553 
Q 372 3047 722 3315 
Q 1072 3584 1716 3584 
Q 2034 3584 2315 3537 
Q 2597 3491 2834 3397 
z
" transform="scale(0.015625)"/>
      <path id="DejaVuSans-72" d="M 2631 2963 
Q 2534 3019 2420 3045 
Q 2306 3072 2169 3072 
Q 1681 3072 1420 2755 
Q 1159 2438 1159 1844 
L 1159 0 
L 581 0 
L 581 3500 
L 1159 3500 
L 1159 2956 
Q 1341 3275 1631 3429 
Q 1922 3584 2338 3584 
Q 2397 3584 2469 3576 
Q 2541 3569 2628 3553 
L 2631 2963 
z
" transform="scale(0.015625)"/>
      <path id="DejaVuSans-61" d="M 2194 1759 
Q 1497 1759 1228 1600 
Q 959 1441 959 1056 
Q 959 750 1161 570 
Q 1363 391 1709 391 
Q 2188 391 2477 730 
Q 2766 1069 2766 1631 
L 2766 1759 
L 2194 1759 
z
M 3341 1997 
L 3341 0 
L 2766 0 
L 2766 531 
Q 2569 213 2275 61 
Q 1981 -91 1556 -91 
Q 1019 -91 701 211 
Q 384 513 384 1019 
Q 384 1609 779 1909 
Q 1175 2209 1959 2209 
L 2766 2209 
L 2766 2266 
Q 2766 2663 2505 2880 
Q 2244 3097 1772 3097 
Q 1472 3097 1187 3025 
Q 903 2953 641 2809 
L 641 3341 
Q 956 3463 1253 3523 
Q 1550 3584 1831 3584 
Q 2591 3584 2966 3190 
Q 3341 2797 3341 1997 
z
" transform="scale(0.015625)"/>
      <path id="DejaVuSans-5f" d="M 3263 -1063 
L 3263 -1509 
L -63 -1509 
L -63 -1063 
L 3263 -1063 
z
" transform="scale(0.015625)"/>
     </defs>
     <use xlink:href="#DejaVuSans-63"/>
     <use xlink:href="#DejaVuSans-6f" transform="translate(54.980469 0)"/>
     <use xlink:href="#DejaVuSans-6e" transform="translate(116.162109 0)"/>
     <use xlink:href="#DejaVuSans-73" transform="translate(179.541016 0)"/>
     <use xlink:href="#DejaVuSans-74" transform="translate(231.640625 0)"/>
     <use xlink:href="#DejaVuSans-72" transform="translate(270.849609 0)"/>
     <use xlink:href="#DejaVuSans-61" transform="translate(311.962891 0)"/>
     <use xlink:href="#DejaVuSans-69" transform="translate(373.242188 0)"/>
     <use xlink:href="#DejaVuSans-6e" transform="translate(401.025391 0)"/>
     <use xlink:href="#DejaVuSans-74" transform="translate(464.404297 0)"/>
     <use xlink:href="#DejaVuSans-5f" transform="translate(503.613281 0)"/>
     <use xlink:href="#DejaVuSans-32" transform="translate(553.613281 0)"/>
    </g>
   </g>
   <g id="text_11">
    <!-- constraint_1 -->
    <g transform="translate(543.590391 276.094681) scale(0.09 -0.09)">
     <use xlink:href="#DejaVuSans-63"/>
     <use xlink:href="#DejaVuSans-6f" transform="translate(54.980469 0)"/>
     <use xlink:href="#DejaVuSans-6e" transform="translate(116.162109 0)"/>
     <use xlink:href="#DejaVuSans-73" transform="translate(179.541016 0)"/>
     <use xlink:href="#DejaVuSans-74" transform="translate(231.640625 0)"/>
     <use xlink:href="#DejaVuSans-72" transform="translate(270.849609 0)"/>
     <use xlink:href="#DejaVuSans-61" transform="translate(311.962891 0)"/>
     <use xlink:href="#DejaVuSans-69" transform="translate(373.242188 0)"/>
     <use xlink:href="#DejaVuSans-6e" transform="translate(401.025391 0)"/>
     <use xlink:href="#DejaVuSans-74" transform="translate(464.404297 0)"/>
     <use xlink:href="#DejaVuSans-5f" transform="translate(503.613281 0)"/>
     <use xlink:href="#DejaVuSans-31" transform="translate(553.613281 0)"/>
    </g>
   </g>
   <g id="text_12">
    <!-- y2 -->
    <g transform="translate(267.061209 57.116365) scale(0.09 -0.09)">
     <defs>
      <path id="DejaVuSans-79" d="M 2059 -325 
Q 1816 -950 1584 -1140 
Q 1353 -1331 966 -1331 
L 506 -1331 
L 506 -850 
L 844 -850 
Q 1081 -850 1212 -737 
Q 1344 -625 1503 -206 
L 1606 56 
L 191 3500 
L 800 3500 
L 1894 763 
L 2988 3500 
L 3597 3500 
L 2059 -325 
z
" transform="scale(0.015625)"/>
     </defs>
     <use xlink:href="#DejaVuSans-79"/>
     <use xlink:href="#DejaVuSans-32" transform="translate(59.179688 0)"/>
    </g>
   </g>
   <g id="text_13">
    <!-- y1 -->
    <g transform="translate(167.468721 106.388438) scale(0.09 -0.09)">
     <use xlink:href="#DejaVuSans-79"/>
     <use xlink:href="#DejaVuSans-31" transform="translate(59.179688 0)"/>
    </g>
   </g>
   <g id="text_14">
    <!-- y1 -->
    <g transform="translate(167.468721 151.467143) scale(0.09 -0.09)">
     <use xlink:href="#DejaVuSans-79"/>
     <use xlink:href="#DejaVuSans-31" transform="translate(59.179688 0)"/>
    </g>
   </g>
   <g id="text_15">
    <!-- y2 -->
    <g transform="translate(267.061209 151.467143) scale(0.09 -0.09)">
     <use xlink:href="#DejaVuSans-79"/>
     <use xlink:href="#DejaVuSans-32" transform="translate(59.179688 0)"/>
    </g>
   </g>
   <g id="text_16">
    <!-- y2 -->
    <g transform="translate(267.061209 194.973335) scale(0.09 -0.09)">
     <use xlink:href="#DejaVuSans-79"/>
     <use xlink:href="#DejaVuSans-32" transform="translate(59.179688 0)"/>
    </g>
   </g>
   <g id="text_17">
    <!-- y1 -->
    <g transform="translate(167.468721 236.907014) scale(0.09 -0.09)">
     <use xlink:href="#DejaVuSans-79"/>
     <use xlink:href="#DejaVuSans-31" transform="translate(59.179688 0)"/>
    </g>
   </g>
  </g>
 </g>
 <defs>
  <clipPath id="p784c72c88d">
   <rect x="7.2" y="7.2" width="662.342461" height="302.20344"/>
  </clipPath>
 </defs>
</svg>
