<?xml version="1.0" encoding="utf-8" standalone="no"?>
<!DOCTYPE svg PUBLIC "-//W3C//DTD SVG 1.1//EN"
  "http://www.w3.org/Graphics/SVG/1.1/DTD/svg11.dtd">
<svg xmlns:xlink="http://www.w3.org/1999/xlink" width="876.151637pt" height="435.87pt" viewBox="0 0 876.151637 435.87" xmlns="http://www.w3.org/2000/svg" version="1.1">
 <metadata>
  <rdf:RDF xmlns:dc="http://purl.org/dc/elements/1.1/" xmlns:cc="http://creativecommons.org/ns#" xmlns:rdf="http://www.w3.org/1999/02/22-rdf-syntax-ns#">
   <cc:Work>
    <dc:type rdf:resource="http://purl.org/dc/dcmitype/StillImage"/>
    <dc:date>2026-07-12T12:06:23.647938</dc:date>
    <dc:format>image/svg+xml</dc:format>
    <dc:creator>
     <cc:Agent>
      <dc:title>Matplotlib v3.10.7, https://matplotlib.org/</dc:title>
     </cc:Agent>
    </dc:creator>
   </cc:Work>
  </rdf:RDF>
 </metadata>
 <defs>
  <style type="text/css">*{stroke-linejoin: round; stroke-linecap: butt}</style>
 </defs>
 <g id="figure_1">
  <g id="patch_1">
   <path d="M -0 435.87 
L 876.151637 435.87 
L 876.151637 0 
L -0 0 
z
" style="fill: #ffffff"/>
  </g>
  <g id="axes_1">
   <g id="patch_2">
    <path d="M 71.747977 56.475 
Q 79.34348 56.475 85.597343 56.475 
" clip-path="url(#pbcca0f0594)" style="fill: none; stroke: #616161; stroke-width: 1.2; stroke-linecap: round"/>
    <path d="M 80.797343 54.075 
L 85.597343 56.475 
L 80.797343 58.875 
z
" clip-path="url(#pbcca0f0594)" style="fill: #616161; stroke: #616161; stroke-width: 1.2; stroke-linecap: round"/>
   </g>
   <g id="patch_3">
    <path d="M 71.381336 126.45 
Q 140.371275 126.45 208.019573 126.45 
" clip-path="url(#pbcca0f0594)" style="fill: none; stroke: #616161; stroke-width: 1.2; stroke-linecap: round"/>
    <path d="M 203.219573 124.05 
L 208.019573 126.45 
L 203.219573 128.85 
z
" clip-path="url(#pbcca0f0594)" style="fill: #616161; stroke: #616161; stroke-width: 1.2; stroke-linecap: round"/>
   </g>
   <g id="patch_4">
    <path d="M 71.751179 192.69 
Q 201.670638 192.69 330.248456 192.69 
" clip-path="url(#pbcca0f0594)" style="fill: none; stroke: #616161; stroke-width: 1.2; stroke-linecap: round"/>
    <path d="M 325.448456 190.29 
L 330.248456 192.69 
L 325.448456 195.09 
z
" clip-path="url(#pbcca0f0594)" style="fill: #616161; stroke: #616161; stroke-width: 1.2; stroke-linecap: round"/>
   </g>
   <g id="patch_5">
    <path d="M 408.893217 219.796592 
Q 408.893217 293.879754 408.893217 366.621275 
" clip-path="url(#pbcca0f0594)" style="fill: none; stroke: #616161; stroke-width: 1.2; stroke-linecap: round"/>
    <path d="M 411.293217 361.821275 
L 408.893217 366.621275 
L 406.493217 361.821275 
z
" clip-path="url(#pbcca0f0594)" style="fill: #616161; stroke: #616161; stroke-width: 1.2; stroke-linecap: round"/>
   </g>
   <g id="patch_6">
    <path d="M 583.291637 286.032674 
Q 583.291637 326.997113 583.291637 366.619911 
" clip-path="url(#pbcca0f0594)" style="fill: none; stroke: #616161; stroke-width: 1.2; stroke-linecap: round"/>
    <path d="M 585.691637 361.819911 
L 583.291637 366.619911 
L 580.891637 361.819911 
z
" clip-path="url(#pbcca0f0594)" style="fill: #616161; stroke: #616161; stroke-width: 1.2; stroke-linecap: round"/>
   </g>
   <g id="patch_7">
    <path d="M 765.451637 352.276924 
Q 765.451637 360.116346 765.451637 366.614128 
" clip-path="url(#pbcca0f0594)" style="fill: none; stroke: #616161; stroke-width: 1.2; stroke-linecap: round"/>
    <path d="M 767.851637 361.814128 
L 765.451637 366.614128 
L 763.051637 361.814128 
z
" clip-path="url(#pbcca0f0594)" style="fill: #616161; stroke: #616161; stroke-width: 1.2; stroke-linecap: round"/>
   </g>
   <g id="patch_8">
    <path d="M 264.460586 99.342851 
Q 264.460586 87.940538 264.460586 78.327078 
" clip-path="url(#pbcca0f0594)" style="fill: none; stroke: #d32f2f; stroke-width: 1.6; stroke-linecap: round"/>
    <path d="M 262.060586 83.127078 
L 264.460586 78.327078 
L 266.860586 83.127078 
z
" clip-path="url(#pbcca0f0594)" style="fill: #d32f2f; stroke: #d32f2f; stroke-width: 1.6; stroke-linecap: round"/>
   </g>
   <g id="patch_9">
    <path d="M 242.767085 56.475 
Q 220.047561 56.475 199.116892 56.475 
" clip-path="url(#pbcca0f0594)" style="fill: none; stroke: #d32f2f; stroke-width: 1.6; stroke-linecap: round"/>
    <path d="M 203.916892 58.875 
L 199.116892 56.475 
L 203.916892 54.075 
z
" clip-path="url(#pbcca0f0594)" style="fill: #d32f2f; stroke: #d32f2f; stroke-width: 1.6; stroke-linecap: round"/>
   </g>
   <g id="patch_10">
    <path d="M 142.132477 83.582149 
Q 142.132477 94.984462 142.132477 105.045135 
" clip-path="url(#pbcca0f0594)" style="fill: none; stroke: #616161; stroke-width: 1.2; stroke-linecap: round"/>
    <path d="M 144.532477 100.245135 
L 142.132477 105.045135 
L 139.732477 100.245135 
z
" clip-path="url(#pbcca0f0594)" style="fill: #616161; stroke: #616161; stroke-width: 1.2; stroke-linecap: round"/>
   </g>
   <g id="patch_11">
    <path d="M 163.854385 126.45 
Q 186.608735 126.45 208.021444 126.45 
" clip-path="url(#pbcca0f0594)" style="fill: none; stroke: #616161; stroke-width: 1.2; stroke-linecap: round"/>
    <path d="M 203.221444 124.05 
L 208.021444 126.45 
L 203.221444 128.85 
z
" clip-path="url(#pbcca0f0594)" style="fill: #616161; stroke: #616161; stroke-width: 1.2; stroke-linecap: round"/>
   </g>
   <g id="patch_12">
    <path d="M 142.132477 83.584612 
Q 142.132477 128.106419 142.132477 171.286585 
" clip-path="url(#pbcca0f0594)" style="fill: none; stroke: #616161; stroke-width: 1.2; stroke-linecap: round"/>
    <path d="M 144.532477 166.486585 
L 142.132477 171.286585 
L 139.732477 166.486585 
z
" clip-path="url(#pbcca0f0594)" style="fill: #616161; stroke: #616161; stroke-width: 1.2; stroke-linecap: round"/>
   </g>
   <g id="patch_13">
    <path d="M 163.857253 192.69 
Q 247.722074 192.69 330.245254 192.69 
" clip-path="url(#pbcca0f0594)" style="fill: none; stroke: #616161; stroke-width: 1.2; stroke-linecap: round"/>
    <path d="M 325.445254 190.29 
L 330.245254 192.69 
L 325.445254 195.09 
z
" clip-path="url(#pbcca0f0594)" style="fill: #616161; stroke: #616161; stroke-width: 1.2; stroke-linecap: round"/>
   </g>
   <g id="patch_14">
    <path d="M 264.460586 153.557577 
Q 264.460586 163.091783 264.460586 171.284349 
" clip-path="url(#pbcca0f0594)" style="fill: none; stroke: #616161; stroke-width: 1.2; stroke-linecap: round"/>
    <path d="M 266.860586 166.484349 
L 264.460586 171.284349 
L 262.060586 166.484349 
z
" clip-path="url(#pbcca0f0594)" style="fill: #616161; stroke: #616161; stroke-width: 1.2; stroke-linecap: round"/>
   </g>
   <g id="patch_15">
    <path d="M 286.151193 192.69 
Q 308.872436 192.69 330.252038 192.69 
" clip-path="url(#pbcca0f0594)" style="fill: none; stroke: #616161; stroke-width: 1.2; stroke-linecap: round"/>
    <path d="M 325.452038 190.29 
L 330.252038 192.69 
L 325.452038 195.09 
z
" clip-path="url(#pbcca0f0594)" style="fill: #616161; stroke: #616161; stroke-width: 1.2; stroke-linecap: round"/>
   </g>
   <g id="patch_16">
    <path d="M 264.460586 153.556698 
Q 264.460586 196.214885 264.460586 237.531431 
" clip-path="url(#pbcca0f0594)" style="fill: none; stroke: #616161; stroke-width: 1.2; stroke-linecap: round"/>
    <path d="M 266.860586 232.731431 
L 264.460586 237.531431 
L 262.060586 232.731431 
z
" clip-path="url(#pbcca0f0594)" style="fill: #616161; stroke: #616161; stroke-width: 1.2; stroke-linecap: round"/>
   </g>
   <g id="patch_17">
    <path d="M 286.153842 258.93 
Q 392.188457 258.93 496.881431 258.93 
" clip-path="url(#pbcca0f0594)" style="fill: none; stroke: #616161; stroke-width: 1.2; stroke-linecap: round"/>
    <path d="M 492.081431 256.53 
L 496.881431 258.93 
L 492.081431 261.33 
z
" clip-path="url(#pbcca0f0594)" style="fill: #616161; stroke: #616161; stroke-width: 1.2; stroke-linecap: round"/>
   </g>
   <g id="patch_18">
    <path d="M 142.132477 83.581532 
Q 142.132477 194.345761 142.132477 303.76835 
" clip-path="url(#pbcca0f0594)" style="fill: none; stroke: #616161; stroke-width: 1.2; stroke-linecap: round"/>
    <path d="M 144.532477 298.96835 
L 142.132477 303.76835 
L 139.732477 298.96835 
z
" clip-path="url(#pbcca0f0594)" style="fill: #616161; stroke: #616161; stroke-width: 1.2; stroke-linecap: round"/>
   </g>
   <g id="patch_19">
    <path d="M 163.85426 325.17 
Q 422.121569 325.17 679.047237 325.17 
" clip-path="url(#pbcca0f0594)" style="fill: none; stroke: #616161; stroke-width: 1.2; stroke-linecap: round"/>
    <path d="M 674.247237 322.77 
L 679.047237 325.17 
L 674.247237 327.57 
z
" clip-path="url(#pbcca0f0594)" style="fill: #616161; stroke: #616161; stroke-width: 1.2; stroke-linecap: round"/>
   </g>
   <g id="patch_20">
    <path d="M 98.306578 78.831 
L 185.958375 78.831 
Q 192.582375 78.831 192.582375 72.207 
L 192.582375 40.743 
Q 192.582375 34.119 185.958375 34.119 
L 98.306578 34.119 
Q 91.682578 34.119 91.682578 40.743 
L 91.682578 72.207 
Q 91.682578 78.831 98.306578 78.831 
z
" clip-path="url(#pbcca0f0594)" style="fill: #fff3e0; stroke: #ef6c00; stroke-width: 1.5; stroke-linejoin: miter"/>
   </g>
   <g id="patch_21">
    <path d="M 220.734375 148.806 
L 308.186797 148.806 
Q 314.810797 148.806 314.810797 142.182 
L 314.810797 110.718 
Q 314.810797 104.094 308.186797 104.094 
L 220.734375 104.094 
Q 214.110375 104.094 214.110375 110.718 
L 214.110375 142.182 
Q 214.110375 148.806 220.734375 148.806 
z
" clip-path="url(#pbcca0f0594)" style="fill: #fff3e0; stroke: #ef6c00; stroke-width: 1.5; stroke-linejoin: miter"/>
   </g>
   <g id="patch_22">
    <path d="M 342.962797 215.046 
L 474.823637 215.046 
Q 481.447637 215.046 481.447637 208.422 
L 481.447637 176.958 
Q 481.447637 170.334 474.823637 170.334 
L 342.962797 170.334 
Q 336.338797 170.334 336.338797 176.958 
L 336.338797 208.422 
Q 336.338797 215.046 342.962797 215.046 
z
" clip-path="url(#pbcca0f0594)" style="fill: #fff3e0; stroke: #ef6c00; stroke-width: 1.5; stroke-linejoin: miter"/>
   </g>
   <g id="patch_23">
    <path d="M 509.599637 281.286 
L 656.983637 281.286 
Q 663.607637 281.286 663.607637 274.662 
L 663.607637 243.198 
Q 663.607637 236.574 656.983637 236.574 
L 509.599637 236.574 
Q 502.975637 236.574 502.975637 243.198 
L 502.975637 274.662 
Q 502.975637 281.286 509.599637 281.286 
z
" clip-path="url(#pbcca0f0594)" style="fill: #fff3e0; stroke: #ef6c00; stroke-width: 1.5; stroke-linejoin: miter"/>
   </g>
   <g id="patch_24">
    <path d="M 691.759637 347.526 
L 839.143637 347.526 
Q 845.767637 347.526 845.767637 340.902 
L 845.767637 309.438 
Q 845.767637 302.814 839.143637 302.814 
L 691.759637 302.814 
Q 685.135637 302.814 685.135637 309.438 
L 685.135637 340.902 
Q 685.135637 347.526 691.759637 347.526 
z
" clip-path="url(#pbcca0f0594)" style="fill: #fff3e0; stroke: #ef6c00; stroke-width: 1.5; stroke-linejoin: miter"/>
   </g>
   <g id="patch_25">
    <path d="M 32.04 32.04 
L 68.498578 32.04 
L 68.498578 80.91 
L 32.04 80.91 
z
" clip-path="url(#pbcca0f0594)" style="fill: #e3f2fd; stroke: #1565c0; stroke-width: 1.5; stroke-linejoin: miter"/>
   </g>
   <g id="patch_26">
    <path d="M 32.40501 108.09 
L 68.133568 108.09 
L 68.133568 144.81 
L 32.40501 144.81 
z
" clip-path="url(#pbcca0f0594)" style="fill: #e3f2fd; stroke: #1565c0; stroke-width: 1.5; stroke-linejoin: miter"/>
   </g>
   <g id="patch_27">
    <path d="M 32.04 174.33 
L 68.498578 174.33 
L 68.498578 211.05 
L 32.04 211.05 
z
" clip-path="url(#pbcca0f0594)" style="fill: #e3f2fd; stroke: #1565c0; stroke-width: 1.5; stroke-linejoin: miter"/>
   </g>
   <g id="patch_28">
    <path d="M 375.584006 370.71 
L 442.202428 370.71 
L 442.202428 403.83 
L 375.584006 403.83 
z
" clip-path="url(#pbcca0f0594)" style="fill: #e8f5e9; stroke: #2e7d32; stroke-width: 2.5; stroke-linejoin: miter"/>
   </g>
   <g id="patch_29">
    <path d="M 542.96682 370.71 
L 623.616453 370.71 
L 623.616453 403.83 
L 542.96682 403.83 
z
" clip-path="url(#pbcca0f0594)" style="fill: #e8f5e9; stroke: #2e7d32; stroke-width: 2.5; stroke-linejoin: miter"/>
   </g>
   <g id="patch_30">
    <path d="M 725.091664 370.71 
L 805.811609 370.71 
L 805.811609 403.83 
L 725.091664 403.83 
z
" clip-path="url(#pbcca0f0594)" style="fill: #e8f5e9; stroke: #2e7d32; stroke-width: 2.5; stroke-linejoin: miter"/>
   </g>
   <g id="patch_31">
    <path d="M 246.271375 39.915 
L 282.649797 39.915 
L 282.649797 73.035 
L 246.271375 73.035 
z
" clip-path="url(#pbcca0f0594)" style="fill: #f5f5f5; stroke: #757575; stroke-linejoin: miter"/>
   </g>
   <g id="patch_32">
    <path d="M 123.908109 109.89 
L 160.356844 109.89 
L 160.356844 143.01 
L 123.908109 143.01 
z
" clip-path="url(#pbcca0f0594)" style="fill: #f5f5f5; stroke: #757575; stroke-linejoin: miter"/>
   </g>
   <g id="patch_33">
    <path d="M 123.908109 176.13 
L 160.356844 176.13 
L 160.356844 209.25 
L 123.908109 209.25 
z
" clip-path="url(#pbcca0f0594)" style="fill: #f5f5f5; stroke: #757575; stroke-linejoin: miter"/>
   </g>
   <g id="patch_34">
    <path d="M 246.271375 176.13 
L 282.649797 176.13 
L 282.649797 209.25 
L 246.271375 209.25 
z
" clip-path="url(#pbcca0f0594)" style="fill: #f5f5f5; stroke: #757575; stroke-linejoin: miter"/>
   </g>
   <g id="patch_35">
    <path d="M 246.271375 242.37 
L 282.649797 242.37 
L 282.649797 275.49 
L 246.271375 275.49 
z
" clip-path="url(#pbcca0f0594)" style="fill: #f5f5f5; stroke: #757575; stroke-linejoin: miter"/>
   </g>
   <g id="patch_36">
    <path d="M 123.908109 308.61 
L 160.356844 308.61 
L 160.356844 341.73 
L 123.908109 341.73 
z
" clip-path="url(#pbcca0f0594)" style="fill: #f5f5f5; stroke: #757575; stroke-linejoin: miter"/>
   </g>
   <g id="text_1">
    <!-- discipline_1 -->
    <g transform="translate(105.960523 59.357344) scale(0.11 -0.11)">
     <defs>
      <path id="DejaVuSans-Bold-64" d="M 2919 2988 
L 2919 4863 
L 4044 4863 
L 4044 0 
L 2919 0 
L 2919 506 
Q 2688 197 2409 53 
Q 2131 -91 1766 -91 
Q 1119 -91 703 423 
Q 288 938 288 1747 
Q 288 2556 703 3070 
Q 1119 3584 1766 3584 
Q 2128 3584 2408 3439 
Q 2688 3294 2919 2988 
z
M 2181 722 
Q 2541 722 2730 984 
Q 2919 1247 2919 1747 
Q 2919 2247 2730 2509 
Q 2541 2772 2181 2772 
Q 1825 2772 1636 2509 
Q 1447 2247 1447 1747 
Q 1447 1247 1636 984 
Q 1825 722 2181 722 
z
" transform="scale(0.015625)"/>
      <path id="DejaVuSans-Bold-69" d="M 538 3500 
L 1656 3500 
L 1656 0 
L 538 0 
L 538 3500 
z
M 538 4863 
L 1656 4863 
L 1656 3950 
L 538 3950 
L 538 4863 
z
" transform="scale(0.015625)"/>
      <path id="DejaVuSans-Bold-73" d="M 3272 3391 
L 3272 2541 
Q 2913 2691 2578 2766 
Q 2244 2841 1947 2841 
Q 1628 2841 1473 2761 
Q 1319 2681 1319 2516 
Q 1319 2381 1436 2309 
Q 1553 2238 1856 2203 
L 2053 2175 
Q 2913 2066 3209 1816 
Q 3506 1566 3506 1031 
Q 3506 472 3093 190 
Q 2681 -91 1863 -91 
Q 1516 -91 1145 -36 
Q 775 19 384 128 
L 384 978 
Q 719 816 1070 734 
Q 1422 653 1784 653 
Q 2113 653 2278 743 
Q 2444 834 2444 1013 
Q 2444 1163 2330 1236 
Q 2216 1309 1875 1350 
L 1678 1375 
Q 931 1469 631 1722 
Q 331 1975 331 2491 
Q 331 3047 712 3315 
Q 1094 3584 1881 3584 
Q 2191 3584 2531 3537 
Q 2872 3491 3272 3391 
z
" transform="scale(0.015625)"/>
      <path id="DejaVuSans-Bold-63" d="M 3366 3391 
L 3366 2478 
Q 3138 2634 2908 2709 
Q 2678 2784 2431 2784 
Q 1963 2784 1702 2511 
Q 1441 2238 1441 1747 
Q 1441 1256 1702 982 
Q 1963 709 2431 709 
Q 2694 709 2930 787 
Q 3166 866 3366 1019 
L 3366 103 
Q 3103 6 2833 -42 
Q 2563 -91 2291 -91 
Q 1344 -91 809 395 
Q 275 881 275 1747 
Q 275 2613 809 3098 
Q 1344 3584 2291 3584 
Q 2566 3584 2833 3536 
Q 3100 3488 3366 3391 
z
" transform="scale(0.015625)"/>
      <path id="DejaVuSans-Bold-70" d="M 1656 506 
L 1656 -1331 
L 538 -1331 
L 538 3500 
L 1656 3500 
L 1656 2988 
Q 1888 3294 2169 3439 
Q 2450 3584 2816 3584 
Q 3463 3584 3878 3070 
Q 4294 2556 4294 1747 
Q 4294 938 3878 423 
Q 3463 -91 2816 -91 
Q 2450 -91 2169 54 
Q 1888 200 1656 506 
z
M 2400 2772 
Q 2041 2772 1848 2508 
Q 1656 2244 1656 1747 
Q 1656 1250 1848 986 
Q 2041 722 2400 722 
Q 2759 722 2948 984 
Q 3138 1247 3138 1747 
Q 3138 2247 2948 2509 
Q 2759 2772 2400 2772 
z
" transform="scale(0.015625)"/>
      <path id="DejaVuSans-Bold-6c" d="M 538 4863 
L 1656 4863 
L 1656 0 
L 538 0 
L 538 4863 
z
" transform="scale(0.015625)"/>
      <path id="DejaVuSans-Bold-6e" d="M 4056 2131 
L 4056 0 
L 2931 0 
L 2931 347 
L 2931 1631 
Q 2931 2084 2911 2256 
Q 2891 2428 2841 2509 
Q 2775 2619 2662 2680 
Q 2550 2741 2406 2741 
Q 2056 2741 1856 2470 
Q 1656 2200 1656 1722 
L 1656 0 
L 538 0 
L 538 3500 
L 1656 3500 
L 1656 2988 
Q 1909 3294 2193 3439 
Q 2478 3584 2822 3584 
Q 3428 3584 3742 3212 
Q 4056 2841 4056 2131 
z
" transform="scale(0.015625)"/>
      <path id="DejaVuSans-Bold-65" d="M 4031 1759 
L 4031 1441 
L 1416 1441 
Q 1456 1047 1700 850 
Q 1944 653 2381 653 
Q 2734 653 3104 758 
Q 3475 863 3866 1075 
L 3866 213 
Q 3469 63 3072 -14 
Q 2675 -91 2278 -91 
Q 1328 -91 801 392 
Q 275 875 275 1747 
Q 275 2603 792 3093 
Q 1309 3584 2216 3584 
Q 3041 3584 3536 3087 
Q 4031 2591 4031 1759 
z
M 2881 2131 
Q 2881 2450 2695 2645 
Q 2509 2841 2209 2841 
Q 1884 2841 1681 2658 
Q 1478 2475 1428 2131 
L 2881 2131 
z
" transform="scale(0.015625)"/>
      <path id="DejaVuSans-Bold-5f" d="M 3200 -916 
L 3200 -1509 
L 0 -1509 
L 0 -916 
L 3200 -916 
z
" transform="scale(0.015625)"/>
      <path id="DejaVuSans-Bold-31" d="M 750 831 
L 1813 831 
L 1813 3847 
L 722 3622 
L 722 4441 
L 1806 4666 
L 2950 4666 
L 2950 831 
L 4013 831 
L 4013 0 
L 750 0 
L 750 831 
z
" transform="scale(0.015625)"/>
     </defs>
     <use xlink:href="#DejaVuSans-Bold-64"/>
     <use xlink:href="#DejaVuSans-Bold-69" transform="translate(71.582031 0)"/>
     <use xlink:href="#DejaVuSans-Bold-73" transform="translate(105.859375 0)"/>
     <use xlink:href="#DejaVuSans-Bold-63" transform="translate(165.380859 0)"/>
     <use xlink:href="#DejaVuSans-Bold-69" transform="translate(224.658203 0)"/>
     <use xlink:href="#DejaVuSans-Bold-70" transform="translate(258.935547 0)"/>
     <use xlink:href="#DejaVuSans-Bold-6c" transform="translate(330.517578 0)"/>
     <use xlink:href="#DejaVuSans-Bold-69" transform="translate(364.794922 0)"/>
     <use xlink:href="#DejaVuSans-Bold-6e" transform="translate(399.072266 0)"/>
     <use xlink:href="#DejaVuSans-Bold-65" transform="translate(470.263672 0)"/>
     <use xlink:href="#DejaVuSans-Bold-5f" transform="translate(538.085938 0)"/>
     <use xlink:href="#DejaVuSans-Bold-31" transform="translate(588.085938 0)"/>
    </g>
   </g>
   <g id="text_2">
    <!-- discipline_2 -->
    <g transform="translate(228.288633 129.332344) scale(0.11 -0.11)">
     <defs>
      <path id="DejaVuSans-Bold-32" d="M 1844 884 
L 3897 884 
L 3897 0 
L 506 0 
L 506 884 
L 2209 2388 
Q 2438 2594 2547 2791 
Q 2656 2988 2656 3200 
Q 2656 3528 2436 3728 
Q 2216 3928 1850 3928 
Q 1569 3928 1234 3808 
Q 900 3688 519 3450 
L 519 4475 
Q 925 4609 1322 4679 
Q 1719 4750 2100 4750 
Q 2938 4750 3402 4381 
Q 3866 4013 3866 3353 
Q 3866 2972 3669 2642 
Q 3472 2313 2841 1759 
L 1844 884 
z
" transform="scale(0.015625)"/>
     </defs>
     <use xlink:href="#DejaVuSans-Bold-64"/>
     <use xlink:href="#DejaVuSans-Bold-69" transform="translate(71.582031 0)"/>
     <use xlink:href="#DejaVuSans-Bold-73" transform="translate(105.859375 0)"/>
     <use xlink:href="#DejaVuSans-Bold-63" transform="translate(165.380859 0)"/>
     <use xlink:href="#DejaVuSans-Bold-69" transform="translate(224.658203 0)"/>
     <use xlink:href="#DejaVuSans-Bold-70" transform="translate(258.935547 0)"/>
     <use xlink:href="#DejaVuSans-Bold-6c" transform="translate(330.517578 0)"/>
     <use xlink:href="#DejaVuSans-Bold-69" transform="translate(364.794922 0)"/>
     <use xlink:href="#DejaVuSans-Bold-6e" transform="translate(399.072266 0)"/>
     <use xlink:href="#DejaVuSans-Bold-65" transform="translate(470.263672 0)"/>
     <use xlink:href="#DejaVuSans-Bold-5f" transform="translate(538.085938 0)"/>
     <use xlink:href="#DejaVuSans-Bold-32" transform="translate(588.085938 0)"/>
    </g>
   </g>
   <g id="text_3">
    <!-- compute_objective -->
    <g transform="translate(350.739311 195.572344) scale(0.11 -0.11)">
     <defs>
      <path id="DejaVuSans-Bold-6f" d="M 2203 2784 
Q 1831 2784 1636 2517 
Q 1441 2250 1441 1747 
Q 1441 1244 1636 976 
Q 1831 709 2203 709 
Q 2569 709 2762 976 
Q 2956 1244 2956 1747 
Q 2956 2250 2762 2517 
Q 2569 2784 2203 2784 
z
M 2203 3584 
Q 3106 3584 3614 3096 
Q 4122 2609 4122 1747 
Q 4122 884 3614 396 
Q 3106 -91 2203 -91 
Q 1297 -91 786 396 
Q 275 884 275 1747 
Q 275 2609 786 3096 
Q 1297 3584 2203 3584 
z
" transform="scale(0.015625)"/>
      <path id="DejaVuSans-Bold-6d" d="M 3781 2919 
Q 3994 3244 4286 3414 
Q 4578 3584 4928 3584 
Q 5531 3584 5847 3212 
Q 6163 2841 6163 2131 
L 6163 0 
L 5038 0 
L 5038 1825 
Q 5041 1866 5042 1909 
Q 5044 1953 5044 2034 
Q 5044 2406 4934 2573 
Q 4825 2741 4581 2741 
Q 4263 2741 4089 2478 
Q 3916 2216 3909 1719 
L 3909 0 
L 2784 0 
L 2784 1825 
Q 2784 2406 2684 2573 
Q 2584 2741 2328 2741 
Q 2006 2741 1831 2477 
Q 1656 2213 1656 1722 
L 1656 0 
L 531 0 
L 531 3500 
L 1656 3500 
L 1656 2988 
Q 1863 3284 2130 3434 
Q 2397 3584 2719 3584 
Q 3081 3584 3359 3409 
Q 3638 3234 3781 2919 
z
" transform="scale(0.015625)"/>
      <path id="DejaVuSans-Bold-75" d="M 500 1363 
L 500 3500 
L 1625 3500 
L 1625 3150 
Q 1625 2866 1622 2436 
Q 1619 2006 1619 1863 
Q 1619 1441 1641 1255 
Q 1663 1069 1716 984 
Q 1784 875 1895 815 
Q 2006 756 2150 756 
Q 2500 756 2700 1025 
Q 2900 1294 2900 1772 
L 2900 3500 
L 4019 3500 
L 4019 0 
L 2900 0 
L 2900 506 
Q 2647 200 2364 54 
Q 2081 -91 1741 -91 
Q 1134 -91 817 281 
Q 500 653 500 1363 
z
" transform="scale(0.015625)"/>
      <path id="DejaVuSans-Bold-74" d="M 1759 4494 
L 1759 3500 
L 2913 3500 
L 2913 2700 
L 1759 2700 
L 1759 1216 
Q 1759 972 1856 886 
Q 1953 800 2241 800 
L 2816 800 
L 2816 0 
L 1856 0 
Q 1194 0 917 276 
Q 641 553 641 1216 
L 641 2700 
L 84 2700 
L 84 3500 
L 641 3500 
L 641 4494 
L 1759 4494 
z
" transform="scale(0.015625)"/>
      <path id="DejaVuSans-Bold-62" d="M 2400 722 
Q 2759 722 2948 984 
Q 3138 1247 3138 1747 
Q 3138 2247 2948 2509 
Q 2759 2772 2400 2772 
Q 2041 2772 1848 2508 
Q 1656 2244 1656 1747 
Q 1656 1250 1848 986 
Q 2041 722 2400 722 
z
M 1656 2988 
Q 1888 3294 2169 3439 
Q 2450 3584 2816 3584 
Q 3463 3584 3878 3070 
Q 4294 2556 4294 1747 
Q 4294 938 3878 423 
Q 3463 -91 2816 -91 
Q 2450 -91 2169 54 
Q 1888 200 1656 506 
L 1656 0 
L 538 0 
L 538 4863 
L 1656 4863 
L 1656 2988 
z
" transform="scale(0.015625)"/>
      <path id="DejaVuSans-Bold-6a" d="M 538 3500 
L 1656 3500 
L 1656 63 
Q 1656 -641 1318 -1011 
Q 981 -1381 341 -1381 
L -213 -1381 
L -213 -647 
L -19 -647 
Q 300 -647 419 -503 
Q 538 -359 538 63 
L 538 3500 
z
M 538 4863 
L 1656 4863 
L 1656 3950 
L 538 3950 
L 538 4863 
z
" transform="scale(0.015625)"/>
      <path id="DejaVuSans-Bold-76" d="M 97 3500 
L 1216 3500 
L 2088 1081 
L 2956 3500 
L 4078 3500 
L 2700 0 
L 1472 0 
L 97 3500 
z
" transform="scale(0.015625)"/>
     </defs>
     <use xlink:href="#DejaVuSans-Bold-63"/>
     <use xlink:href="#DejaVuSans-Bold-6f" transform="translate(59.277344 0)"/>
     <use xlink:href="#DejaVuSans-Bold-6d" transform="translate(127.978516 0)"/>
     <use xlink:href="#DejaVuSans-Bold-70" transform="translate(232.177734 0)"/>
     <use xlink:href="#DejaVuSans-Bold-75" transform="translate(303.759766 0)"/>
     <use xlink:href="#DejaVuSans-Bold-74" transform="translate(374.951172 0)"/>
     <use xlink:href="#DejaVuSans-Bold-65" transform="translate(422.753906 0)"/>
     <use xlink:href="#DejaVuSans-Bold-5f" transform="translate(490.576172 0)"/>
     <use xlink:href="#DejaVuSans-Bold-6f" transform="translate(540.576172 0)"/>
     <use xlink:href="#DejaVuSans-Bold-62" transform="translate(609.277344 0)"/>
     <use xlink:href="#DejaVuSans-Bold-6a" transform="translate(680.859375 0)"/>
     <use xlink:href="#DejaVuSans-Bold-65" transform="translate(715.136719 0)"/>
     <use xlink:href="#DejaVuSans-Bold-63" transform="translate(782.958984 0)"/>
     <use xlink:href="#DejaVuSans-Bold-74" transform="translate(842.236328 0)"/>
     <use xlink:href="#DejaVuSans-Bold-69" transform="translate(890.039062 0)"/>
     <use xlink:href="#DejaVuSans-Bold-76" transform="translate(924.316406 0)"/>
     <use xlink:href="#DejaVuSans-Bold-65" transform="translate(989.501953 0)"/>
    </g>
   </g>
   <g id="text_4">
    <!-- compute_constraint_2 -->
    <g transform="translate(517.186316 261.731264) scale(0.106906 -0.106906)">
     <defs>
      <path id="DejaVuSans-Bold-72" d="M 3138 2547 
Q 2991 2616 2845 2648 
Q 2700 2681 2553 2681 
Q 2122 2681 1889 2404 
Q 1656 2128 1656 1613 
L 1656 0 
L 538 0 
L 538 3500 
L 1656 3500 
L 1656 2925 
Q 1872 3269 2151 3426 
Q 2431 3584 2822 3584 
Q 2878 3584 2943 3579 
Q 3009 3575 3134 3559 
L 3138 2547 
z
" transform="scale(0.015625)"/>
      <path id="DejaVuSans-Bold-61" d="M 2106 1575 
Q 1756 1575 1579 1456 
Q 1403 1338 1403 1106 
Q 1403 894 1545 773 
Q 1688 653 1941 653 
Q 2256 653 2472 879 
Q 2688 1106 2688 1447 
L 2688 1575 
L 2106 1575 
z
M 3816 1997 
L 3816 0 
L 2688 0 
L 2688 519 
Q 2463 200 2181 54 
Q 1900 -91 1497 -91 
Q 953 -91 614 226 
Q 275 544 275 1050 
Q 275 1666 698 1953 
Q 1122 2241 2028 2241 
L 2688 2241 
L 2688 2328 
Q 2688 2594 2478 2717 
Q 2269 2841 1825 2841 
Q 1466 2841 1156 2769 
Q 847 2697 581 2553 
L 581 3406 
Q 941 3494 1303 3539 
Q 1666 3584 2028 3584 
Q 2975 3584 3395 3211 
Q 3816 2838 3816 1997 
z
" transform="scale(0.015625)"/>
     </defs>
     <use xlink:href="#DejaVuSans-Bold-63"/>
     <use xlink:href="#DejaVuSans-Bold-6f" transform="translate(59.277344 0)"/>
     <use xlink:href="#DejaVuSans-Bold-6d" transform="translate(127.978516 0)"/>
     <use xlink:href="#DejaVuSans-Bold-70" transform="translate(232.177734 0)"/>
     <use xlink:href="#DejaVuSans-Bold-75" transform="translate(303.759766 0)"/>
     <use xlink:href="#DejaVuSans-Bold-74" transform="translate(374.951172 0)"/>
     <use xlink:href="#DejaVuSans-Bold-65" transform="translate(422.753906 0)"/>
     <use xlink:href="#DejaVuSans-Bold-5f" transform="translate(490.576172 0)"/>
     <use xlink:href="#DejaVuSans-Bold-63" transform="translate(540.576172 0)"/>
     <use xlink:href="#DejaVuSans-Bold-6f" transform="translate(599.853516 0)"/>
     <use xlink:href="#DejaVuSans-Bold-6e" transform="translate(668.554688 0)"/>
     <use xlink:href="#DejaVuSans-Bold-73" transform="translate(739.746094 0)"/>
     <use xlink:href="#DejaVuSans-Bold-74" transform="translate(799.267578 0)"/>
     <use xlink:href="#DejaVuSans-Bold-72" transform="translate(847.070312 0)"/>
     <use xlink:href="#DejaVuSans-Bold-61" transform="translate(896.386719 0)"/>
     <use xlink:href="#DejaVuSans-Bold-69" transform="translate(963.867188 0)"/>
     <use xlink:href="#DejaVuSans-Bold-6e" transform="translate(998.144531 0)"/>
     <use xlink:href="#DejaVuSans-Bold-74" transform="translate(1069.335938 0)"/>
     <use xlink:href="#DejaVuSans-Bold-5f" transform="translate(1117.138672 0)"/>
     <use xlink:href="#DejaVuSans-Bold-32" transform="translate(1167.138672 0)"/>
    </g>
   </g>
   <g id="text_5">
    <!-- compute_constraint_1 -->
    <g transform="translate(699.444081 327.967121) scale(0.106748 -0.106748)">
     <use xlink:href="#DejaVuSans-Bold-63"/>
     <use xlink:href="#DejaVuSans-Bold-6f" transform="translate(59.277344 0)"/>
     <use xlink:href="#DejaVuSans-Bold-6d" transform="translate(127.978516 0)"/>
     <use xlink:href="#DejaVuSans-Bold-70" transform="translate(232.177734 0)"/>
     <use xlink:href="#DejaVuSans-Bold-75" transform="translate(303.759766 0)"/>
     <use xlink:href="#DejaVuSans-Bold-74" transform="translate(374.951172 0)"/>
     <use xlink:href="#DejaVuSans-Bold-65" transform="translate(422.753906 0)"/>
     <use xlink:href="#DejaVuSans-Bold-5f" transform="translate(490.576172 0)"/>
     <use xlink:href="#DejaVuSans-Bold-63" transform="translate(540.576172 0)"/>
     <use xlink:href="#DejaVuSans-Bold-6f" transform="translate(599.853516 0)"/>
     <use xlink:href="#DejaVuSans-Bold-6e" transform="translate(668.554688 0)"/>
     <use xlink:href="#DejaVuSans-Bold-73" transform="translate(739.746094 0)"/>
     <use xlink:href="#DejaVuSans-Bold-74" transform="translate(799.267578 0)"/>
     <use xlink:href="#DejaVuSans-Bold-72" transform="translate(847.070312 0)"/>
     <use xlink:href="#DejaVuSans-Bold-61" transform="translate(896.386719 0)"/>
     <use xlink:href="#DejaVuSans-Bold-69" transform="translate(963.867188 0)"/>
     <use xlink:href="#DejaVuSans-Bold-6e" transform="translate(998.144531 0)"/>
     <use xlink:href="#DejaVuSans-Bold-74" transform="translate(1069.335938 0)"/>
     <use xlink:href="#DejaVuSans-Bold-5f" transform="translate(1117.138672 0)"/>
     <use xlink:href="#DejaVuSans-Bold-31" transform="translate(1167.138672 0)"/>
    </g>
   </g>
   <g id="text_6">
    <!-- x1 -->
    <g transform="translate(44.742727 48.880406) scale(0.09 -0.09)">
     <defs>
      <path id="DejaVuSans-78" d="M 3513 3500 
L 2247 1797 
L 3578 0 
L 2900 0 
L 1881 1375 
L 863 0 
L 184 0 
L 1544 1831 
L 300 3500 
L 978 3500 
L 1906 2253 
L 2834 3500 
L 3513 3500 
z
" transform="scale(0.015625)"/>
      <path id="DejaVuSans-31" d="M 794 531 
L 1825 531 
L 1825 4091 
L 703 3866 
L 703 4441 
L 1819 4666 
L 2450 4666 
L 2450 531 
L 3481 531 
L 3481 0 
L 794 0 
L 794 531 
z
" transform="scale(0.015625)"/>
     </defs>
     <use xlink:href="#DejaVuSans-78"/>
     <use xlink:href="#DejaVuSans-31" transform="translate(59.179688 0)"/>
    </g>
    <!-- z1 -->
    <g transform="translate(45.044367 58.958437) scale(0.09 -0.09)">
     <defs>
      <path id="DejaVuSans-7a" d="M 353 3500 
L 3084 3500 
L 3084 2975 
L 922 459 
L 3084 459 
L 3084 0 
L 275 0 
L 275 525 
L 2438 3041 
L 353 3041 
L 353 3500 
z
" transform="scale(0.015625)"/>
     </defs>
     <use xlink:href="#DejaVuSans-7a"/>
     <use xlink:href="#DejaVuSans-31" transform="translate(52.490234 0)"/>
    </g>
    <!-- z2 -->
    <g transform="translate(45.044367 69.036469) scale(0.09 -0.09)">
     <defs>
      <path id="DejaVuSans-32" d="M 1228 531 
L 3431 531 
L 3431 0 
L 469 0 
L 469 531 
Q 828 903 1448 1529 
Q 2069 2156 2228 2338 
Q 2531 2678 2651 2914 
Q 2772 3150 2772 3378 
Q 2772 3750 2511 3984 
Q 2250 4219 1831 4219 
Q 1534 4219 1204 4116 
Q 875 4013 500 3803 
L 500 4441 
Q 881 4594 1212 4672 
Q 1544 4750 1819 4750 
Q 2544 4750 2975 4387 
Q 3406 4025 3406 3419 
Q 3406 3131 3298 2873 
Q 3191 2616 2906 2266 
Q 2828 2175 2409 1742 
Q 1991 1309 1228 531 
z
" transform="scale(0.015625)"/>
     </defs>
     <use xlink:href="#DejaVuSans-7a"/>
     <use xlink:href="#DejaVuSans-32" transform="translate(52.490234 0)"/>
    </g>
   </g>
   <g id="text_7">
    <!-- z1 -->
    <g transform="translate(45.044367 123.894422) scale(0.09 -0.09)">
     <use xlink:href="#DejaVuSans-7a"/>
     <use xlink:href="#DejaVuSans-31" transform="translate(52.490234 0)"/>
    </g>
    <!-- z2 -->
    <g transform="translate(45.044367 133.972453) scale(0.09 -0.09)">
     <use xlink:href="#DejaVuSans-7a"/>
     <use xlink:href="#DejaVuSans-32" transform="translate(52.490234 0)"/>
    </g>
   </g>
   <g id="text_8">
    <!-- x1 -->
    <g transform="translate(44.742727 190.134422) scale(0.09 -0.09)">
     <use xlink:href="#DejaVuSans-78"/>
     <use xlink:href="#DejaVuSans-31" transform="translate(59.179688 0)"/>
    </g>
    <!-- z2 -->
    <g transform="translate(45.044367 200.212453) scale(0.09 -0.09)">
     <use xlink:href="#DejaVuSans-7a"/>
     <use xlink:href="#DejaVuSans-32" transform="translate(52.490234 0)"/>
    </g>
   </g>
   <g id="text_9">
    <!-- objective -->
    <g transform="translate(388.342982 389.753437) scale(0.09 -0.09)">
     <defs>
      <path id="DejaVuSans-6f" d="M 1959 3097 
Q 1497 3097 1228 2736 
Q 959 2375 959 1747 
Q 959 1119 1226 758 
Q 1494 397 1959 397 
Q 2419 397 2687 759 
Q 2956 1122 2956 1747 
Q 2956 2369 2687 2733 
Q 2419 3097 1959 3097 
z
M 1959 3584 
Q 2709 3584 3137 3096 
Q 3566 2609 3566 1747 
Q 3566 888 3137 398 
Q 2709 -91 1959 -91 
Q 1206 -91 779 398 
Q 353 888 353 1747 
Q 353 2609 779 3096 
Q 1206 3584 1959 3584 
z
" transform="scale(0.015625)"/>
      <path id="DejaVuSans-62" d="M 3116 1747 
Q 3116 2381 2855 2742 
Q 2594 3103 2138 3103 
Q 1681 3103 1420 2742 
Q 1159 2381 1159 1747 
Q 1159 1113 1420 752 
Q 1681 391 2138 391 
Q 2594 391 2855 752 
Q 3116 1113 3116 1747 
z
M 1159 2969 
Q 1341 3281 1617 3432 
Q 1894 3584 2278 3584 
Q 2916 3584 3314 3078 
Q 3713 2572 3713 1747 
Q 3713 922 3314 415 
Q 2916 -91 2278 -91 
Q 1894 -91 1617 61 
Q 1341 213 1159 525 
L 1159 0 
L 581 0 
L 581 4863 
L 1159 4863 
L 1159 2969 
z
" transform="scale(0.015625)"/>
      <path id="DejaVuSans-6a" d="M 603 3500 
L 1178 3500 
L 1178 -63 
Q 1178 -731 923 -1031 
Q 669 -1331 103 -1331 
L -116 -1331 
L -116 -844 
L 38 -844 
Q 366 -844 484 -692 
Q 603 -541 603 -63 
L 603 3500 
z
M 603 4863 
L 1178 4863 
L 1178 4134 
L 603 4134 
L 603 4863 
z
" transform="scale(0.015625)"/>
      <path id="DejaVuSans-65" d="M 3597 1894 
L 3597 1613 
L 953 1613 
Q 991 1019 1311 708 
Q 1631 397 2203 397 
Q 2534 397 2845 478 
Q 3156 559 3463 722 
L 3463 178 
Q 3153 47 2828 -22 
Q 2503 -91 2169 -91 
Q 1331 -91 842 396 
Q 353 884 353 1716 
Q 353 2575 817 3079 
Q 1281 3584 2069 3584 
Q 2775 3584 3186 3129 
Q 3597 2675 3597 1894 
z
M 3022 2063 
Q 3016 2534 2758 2815 
Q 2500 3097 2075 3097 
Q 1594 3097 1305 2825 
Q 1016 2553 972 2059 
L 3022 2063 
z
" transform="scale(0.015625)"/>
      <path id="DejaVuSans-63" d="M 3122 3366 
L 3122 2828 
Q 2878 2963 2633 3030 
Q 2388 3097 2138 3097 
Q 1578 3097 1268 2742 
Q 959 2388 959 1747 
Q 959 1106 1268 751 
Q 1578 397 2138 397 
Q 2388 397 2633 464 
Q 2878 531 3122 666 
L 3122 134 
Q 2881 22 2623 -34 
Q 2366 -91 2075 -91 
Q 1284 -91 818 406 
Q 353 903 353 1747 
Q 353 2603 823 3093 
Q 1294 3584 2113 3584 
Q 2378 3584 2631 3529 
Q 2884 3475 3122 3366 
z
" transform="scale(0.015625)"/>
      <path id="DejaVuSans-74" d="M 1172 4494 
L 1172 3500 
L 2356 3500 
L 2356 3053 
L 1172 3053 
L 1172 1153 
Q 1172 725 1289 603 
Q 1406 481 1766 481 
L 2356 481 
L 2356 0 
L 1766 0 
Q 1100 0 847 248 
Q 594 497 594 1153 
L 594 3053 
L 172 3053 
L 172 3500 
L 594 3500 
L 594 4494 
L 1172 4494 
z
" transform="scale(0.015625)"/>
      <path id="DejaVuSans-69" d="M 603 3500 
L 1178 3500 
L 1178 0 
L 603 0 
L 603 3500 
z
M 603 4863 
L 1178 4863 
L 1178 4134 
L 603 4134 
L 603 4863 
z
" transform="scale(0.015625)"/>
      <path id="DejaVuSans-76" d="M 191 3500 
L 800 3500 
L 1894 563 
L 2988 3500 
L 3597 3500 
L 2284 0 
L 1503 0 
L 191 3500 
z
" transform="scale(0.015625)"/>
     </defs>
     <use xlink:href="#DejaVuSans-6f"/>
     <use xlink:href="#DejaVuSans-62" transform="translate(61.181641 0)"/>
     <use xlink:href="#DejaVuSans-6a" transform="translate(124.658203 0)"/>
     <use xlink:href="#DejaVuSans-65" transform="translate(152.441406 0)"/>
     <use xlink:href="#DejaVuSans-63" transform="translate(213.964844 0)"/>
     <use xlink:href="#DejaVuSans-74" transform="translate(268.945312 0)"/>
     <use xlink:href="#DejaVuSans-69" transform="translate(308.154297 0)"/>
     <use xlink:href="#DejaVuSans-76" transform="translate(335.9375 0)"/>
     <use xlink:href="#DejaVuSans-65" transform="translate(395.117188 0)"/>
    </g>
   </g>
   <g id="text_10">
    <!-- constraint_2 -->
    <g transform="translate(555.516793 389.628281) scale(0.09 -0.09)">
     <defs>
      <path id="DejaVuSans-6e" d="M 3513 2113 
L 3513 0 
L 2938 0 
L 2938 2094 
Q 2938 2591 2744 2837 
Q 2550 3084 2163 3084 
Q 1697 3084 1428 2787 
Q 1159 2491 1159 1978 
L 1159 0 
L 581 0 
L 581 3500 
L 1159 3500 
L 1159 2956 
Q 1366 3272 1645 3428 
Q 1925 3584 2291 3584 
Q 2894 3584 3203 3211 
Q 3513 2838 3513 2113 
z
" transform="scale(0.015625)"/>
      <path id="DejaVuSans-73" d="M 2834 3397 
L 2834 2853 
Q 2591 2978 2328 3040 
Q 2066 3103 1784 3103 
Q 1356 3103 1142 2972 
Q 928 2841 928 2578 
Q 928 2378 1081 2264 
Q 1234 2150 1697 2047 
L 1894 2003 
Q 2506 1872 2764 1633 
Q 3022 1394 3022 966 
Q 3022 478 2636 193 
Q 2250 -91 1575 -91 
Q 1294 -91 989 -36 
Q 684 19 347 128 
L 347 722 
Q 666 556 975 473 
Q 1284 391 1588 391 
Q 1994 391 2212 530 
Q 2431 669 2431 922 
Q 2431 1156 2273 1281 
Q 2116 1406 1581 1522 
L 1381 1569 
Q 847 1681 609 1914 
Q 372 2147 372 2553 
Q 372 3047 722 3315 
Q 1072 3584 1716 3584 
Q 2034 3584 2315 3537 
Q 2597 3491 2834 3397 
z
" transform="scale(0.015625)"/>
      <path id="DejaVuSans-72" d="M 2631 2963 
Q 2534 3019 2420 3045 
Q 2306 3072 2169 3072 
Q 1681 3072 1420 2755 
Q 1159 2438 1159 1844 
L 1159 0 
L 581 0 
L 581 3500 
L 1159 3500 
L 1159 2956 
Q 1341 3275 1631 3429 
Q 1922 3584 2338 3584 
Q 2397 3584 2469 3576 
Q 2541 3569 2628 3553 
L 2631 2963 
z
" transform="scale(0.015625)"/>
      <path id="DejaVuSans-61" d="M 2194 1759 
Q 1497 1759 1228 1600 
Q 959 1441 959 1056 
Q 959 750 1161 570 
Q 1363 391 1709 391 
Q 2188 391 2477 730 
Q 2766 1069 2766 1631 
L 2766 1759 
L 2194 1759 
z
M 3341 1997 
L 3341 0 
L 2766 0 
L 2766 531 
Q 2569 213 2275 61 
Q 1981 -91 1556 -91 
Q 1019 -91 701 211 
Q 384 513 384 1019 
Q 384 1609 779 1909 
Q 1175 2209 1959 2209 
L 2766 2209 
L 2766 2266 
Q 2766 2663 2505 2880 
Q 2244 3097 1772 3097 
Q 1472 3097 1187 3025 
Q 903 2953 641 2809 
L 641 3341 
Q 956 3463 1253 3523 
Q 1550 3584 1831 3584 
Q 2591 3584 2966 3190 
Q 3341 2797 3341 1997 
z
" transform="scale(0.015625)"/>
      <path id="DejaVuSans-5f" d="M 3263 -1063 
L 3263 -1509 
L -63 -1509 
L -63 -1063 
L 3263 -1063 
z
" transform="scale(0.015625)"/>
     </defs>
     <use xlink:href="#DejaVuSans-63"/>
     <use xlink:href="#DejaVuSans-6f" transform="translate(54.980469 0)"/>
     <use xlink:href="#DejaVuSans-6e" transform="translate(116.162109 0)"/>
     <use xlink:href="#DejaVuSans-73" transform="translate(179.541016 0)"/>
     <use xlink:href="#DejaVuSans-74" transform="translate(231.640625 0)"/>
     <use xlink:href="#DejaVuSans-72" transform="translate(270.849609 0)"/>
     <use xlink:href="#DejaVuSans-61" transform="translate(311.962891 0)"/>
     <use xlink:href="#DejaVuSans-69" transform="translate(373.242188 0)"/>
     <use xlink:href="#DejaVuSans-6e" transform="translate(401.025391 0)"/>
     <use xlink:href="#DejaVuSans-74" transform="translate(464.404297 0)"/>
     <use xlink:href="#DejaVuSans-5f" transform="translate(503.613281 0)"/>
     <use xlink:href="#DejaVuSans-32" transform="translate(553.613281 0)"/>
    </g>
   </g>
   <g id="text_11">
    <!-- constraint_1 -->
    <g transform="translate(737.676793 389.628281) scale(0.09 -0.09)">
     <use xlink:href="#DejaVuSans-63"/>
     <use xlink:href="#DejaVuSans-6f" transform="translate(54.980469 0)"/>
     <use xlink:href="#DejaVuSans-6e" transform="translate(116.162109 0)"/>
     <use xlink:href="#DejaVuSans-73" transform="translate(179.541016 0)"/>
     <use xlink:href="#DejaVuSans-74" transform="translate(231.640625 0)"/>
     <use xlink:href="#DejaVuSans-72" transform="translate(270.849609 0)"/>
     <use xlink:href="#DejaVuSans-61" transform="translate(311.962891 0)"/>
     <use xlink:href="#DejaVuSans-69" transform="translate(373.242188 0)"/>
     <use xlink:href="#DejaVuSans-6e" transform="translate(401.025391 0)"/>
     <use xlink:href="#DejaVuSans-74" transform="translate(464.404297 0)"/>
     <use xlink:href="#DejaVuSans-5f" transform="translate(503.613281 0)"/>
     <use xlink:href="#DejaVuSans-31" transform="translate(553.613281 0)"/>
    </g>
   </g>
   <g id="text_12">
    <!-- y2 -->
    <g transform="translate(258.934023 58.958437) scale(0.09 -0.09)">
     <defs>
      <path id="DejaVuSans-79" d="M 2059 -325 
Q 1816 -950 1584 -1140 
Q 1353 -1331 966 -1331 
L 506 -1331 
L 506 -850 
L 844 -850 
Q 1081 -850 1212 -737 
Q 1344 -625 1503 -206 
L 1606 56 
L 191 3500 
L 800 3500 
L 1894 763 
L 2988 3500 
L 3597 3500 
L 2059 -325 
z
" transform="scale(0.015625)"/>
     </defs>
     <use xlink:href="#DejaVuSans-79"/>
     <use xlink:href="#DejaVuSans-32" transform="translate(59.179688 0)"/>
    </g>
   </g>
   <g id="text_13">
    <!-- y1 -->
    <g transform="translate(136.605914 128.933437) scale(0.09 -0.09)">
     <use xlink:href="#DejaVuSans-79"/>
     <use xlink:href="#DejaVuSans-31" transform="translate(59.179688 0)"/>
    </g>
   </g>
   <g id="text_14">
    <!-- y1 -->
    <g transform="translate(136.605914 195.173437) scale(0.09 -0.09)">
     <use xlink:href="#DejaVuSans-79"/>
     <use xlink:href="#DejaVuSans-31" transform="translate(59.179688 0)"/>
    </g>
   </g>
   <g id="text_15">
    <!-- y2 -->
    <g transform="translate(258.934023 195.173437) scale(0.09 -0.09)">
     <use xlink:href="#DejaVuSans-79"/>
     <use xlink:href="#DejaVuSans-32" transform="translate(59.179688 0)"/>
    </g>
   </g>
   <g id="text_16">
    <!-- y2 -->
    <g transform="translate(258.934023 261.413437) scale(0.09 -0.09)">
     <use xlink:href="#DejaVuSans-79"/>
     <use xlink:href="#DejaVuSans-32" transform="translate(59.179688 0)"/>
    </g>
   </g>
   <g id="text_17">
    <!-- y1 -->
    <g transform="translate(136.605914 327.653437) scale(0.09 -0.09)">
     <use xlink:href="#DejaVuSans-79"/>
     <use xlink:href="#DejaVuSans-31" transform="translate(59.179688 0)"/>
    </g>
   </g>
  </g>
 </g>
 <defs>
  <clipPath id="pbcca0f0594">
   <rect x="7.2" y="7.2" width="861.751637" height="421.47"/>
  </clipPath>
 </defs>
</svg>
